<svg id="visual" viewBox="0 0 900 600" width="900" height="600" xmlns="http://www.w3.org/2000/svg" xmlns:xlink="http://www.w3.org/1999/xlink" version="1.1"><rect x="0" y="0" width="900" height="600" fill="#ffffff"></rect><g transform="translate(-52.584928734739265 592.903666902804)"><path d="M91 -182C125.8 -137.6 167.3 -129.1 228.2 -104.7C289.1 -80.3 369.6 -40.2 393 13.5C416.3 67.2 382.7 134.3 327 167.8C271.3 201.3 193.7 201.1 135.5 229.9C77.3 258.6 38.7 316.3 -15.9 343.9C-70.5 371.4 -141 368.9 -173 325.1C-205.1 281.2 -198.7 196.1 -209.1 135.1C-219.5 74 -246.8 37 -268 -12.2C-289.2 -61.5 -304.4 -123 -289.1 -175.7C-273.9 -228.4 -228.2 -272.2 -174.9 -306C-121.7 -339.7 -60.8 -363.4 -16.4 -335C28.1 -306.7 56.3 -226.4 91 -182" fill="#07594D"></path></g></svg>