<svg width="27" height="27" viewBox="0 0 27 27" fill="none" xmlns="http://www.w3.org/2000/svg">
<g clip-path="url(#clip0_803_511)">
<mask id="mask0_803_511" style="mask-type:luminance" maskUnits="userSpaceOnUse" x="0" y="0" width="27" height="27">
<path d="M26.705 0H0V26.706H26.705V0Z" fill="white"/>
</mask>
<g mask="url(#mask0_803_511)">
<path fill-rule="evenodd" clip-rule="evenodd" d="M13.353 0C15.994 0 18.5756 0.78314 20.7715 2.25039C22.9674 3.71763 24.6789 5.80309 25.6896 8.24303C26.7002 10.683 26.9647 13.3678 26.4494 15.958C25.9342 18.5483 24.6624 20.9275 22.795 22.795C20.9275 24.6624 18.5483 25.9342 15.958 26.4494C13.3678 26.9647 10.683 26.7002 8.24303 25.6896C5.80309 24.6789 3.71763 22.9674 2.25039 20.7715C0.78314 18.5756 0 15.994 0 13.353C0 9.81156 1.40683 6.41518 3.911 3.911C6.41518 1.40683 9.81156 0 13.353 0Z" fill="white"/>
<path fill-rule="evenodd" clip-rule="evenodd" d="M19.025 9.437C14.502 9.166 15.348 10.969 15.302 13.858H18.871L18.298 17.558L15.308 17.569C15.308 19.395 15.314 25.513 15.297 26.557C13.9679 26.7501 12.6174 26.744 11.29 26.539C11.29 25.071 11.29 19.082 11.29 17.558C10.49 17.558 9.054 17.565 8.022 17.553C8.022 16.801 8.01 15.153 8.022 13.848C8.607 13.833 10.622 13.848 11.297 13.825C11.297 12.987 11.297 12.176 11.29 11.113C11.28 7.362 13.732 5.213 19.028 6.276C19.028 7.162 19.028 8.776 19.028 9.428" fill="#019682"/>
</g>
</g>
<defs>
<clipPath id="clip0_803_511">
<rect width="26.705" height="26.706" fill="white"/>
</clipPath>
</defs>
</svg>
