<svg width="626" height="511" viewBox="0 0 626 511" fill="none" xmlns="http://www.w3.org/2000/svg">
<g clip-path="url(#clip0_816_2)">
<mask id="mask0_816_2" style="mask-type:luminance" maskUnits="userSpaceOnUse" x="0" y="0" width="626" height="511">
<path d="M625.127 0H0V510.043H625.127V0Z" fill="white"/>
</mask>
<g mask="url(#mask0_816_2)">
<mask id="mask1_816_2" style="mask-type:luminance" maskUnits="userSpaceOnUse" x="0" y="0" width="626" height="511">
<path d="M625.127 0H0V510.043H625.127V0Z" fill="white"/>
</mask>
<g mask="url(#mask1_816_2)">
<g opacity="0.3">
<mask id="mask2_816_2" style="mask-type:luminance" maskUnits="userSpaceOnUse" x="0" y="0" width="626" height="511">
<path d="M625.127 0H0V510.043H625.127V0Z" fill="white"/>
</mask>
<g mask="url(#mask2_816_2)">
<mask id="mask3_816_2" style="mask-type:luminance" maskUnits="userSpaceOnUse" x="0" y="0" width="626" height="511">
<path d="M625.127 0H0V510.043H625.127V0Z" fill="white"/>
</mask>
<g mask="url(#mask3_816_2)">
<path d="M436.154 0.714053C434.161 0.707739 432.195 1.17236 430.415 2.07005C385.207 24.9491 349.242 62.7031 316.551 98.8601C285.827 132.845 257.251 168.428 228.083 203.573C231.79 197.992 235.533 192.432 239.31 186.892C253.876 165.566 269.093 144.585 285.567 124.485C297.707 109.673 311.83 93.9911 327.702 81.6291C328.202 81.2401 328.71 80.8671 329.216 80.4881C329.548 80.2491 330.434 79.603 330.65 79.453C336.072 75.722 338.795 69.5461 335.101 63.6791C333.837 61.885 332.163 60.4189 330.218 59.403C328.273 58.3871 326.113 57.8509 323.919 57.8391C321.863 57.8035 319.844 58.3966 318.134 59.5391C310.904 64.5201 301.673 71.3331 295.21 76.1151C264.774 111.639 235.993 148.387 208.079 185.185C189.248 210.005 170.779 235.062 152.366 260.151L151.498 260.072C181.454 205.932 220.667 156.314 262.51 109.66C271.547 99.5834 280.76 89.6467 290.149 79.8501C288.457 81.0921 287.425 81.831 287.349 81.831C287.249 81.831 288.559 80.7391 291.798 78.1311C293.907 75.9311 296.022 73.7354 298.142 71.5441C298.966 69.4082 299.136 67.0759 298.633 64.8428C298.13 62.6097 296.975 60.5762 295.315 59.0001C293.033 56.8603 290.016 55.679 286.888 55.7001C283.566 55.7405 280.356 56.9035 277.779 59.0001C276.121 60.3261 274.503 61.6881 272.869 63.0381C271.099 58.3131 266.144 54.4651 260.888 54.4641C260.76 54.4641 260.633 54.4641 260.504 54.4711C262.451 52.3531 264.391 50.2287 266.324 48.0981C273.26 40.4341 268.218 28.3701 257.863 28.3691C256.649 28.3748 255.44 28.5293 254.263 28.8291C249.954 29.9119 245.716 31.2584 241.572 32.8611C241.146 29.8201 239.655 27.0288 237.365 24.9833C235.075 22.9378 232.134 21.7705 229.064 21.6891C226.912 21.7022 224.803 22.2938 222.958 23.4021C208.279 32.0134 194.152 41.5319 180.658 51.9021C181.21 51.2551 181.758 50.6021 182.304 49.9551C162.039 72.9971 141.489 95.8391 121.434 118.96C101.542 141.891 81.921 165.067 63.573 189.06C63.373 188.889 63.254 188.828 63.173 188.828C63.073 188.828 63.036 188.919 62.98 189.01C62.954 189.065 62.9127 189.112 62.8609 189.144C62.8091 189.176 62.749 189.193 62.688 189.192C62.5337 189.181 62.3838 189.136 62.249 189.06C67.92 182.269 72.449 173.885 77.703 166.846C111.036 122.206 148.343 82.0051 188.048 43.1331C193.669 36.3951 199.176 29.5981 204.488 22.7061C210.302 15.1651 202.078 5.16705 193.434 5.16605C191.332 5.16013 189.275 5.77557 187.522 6.93505C162.785 23.1351 140.838 43.8151 119.647 63.8861C130.556 51.5041 141.305 39.0041 151.34 26.0011C157.533 17.9741 148.959 8.81405 140.075 8.81405C138.087 8.80294 136.128 9.28792 134.375 10.2251C126.133 14.6779 118.188 19.6586 110.588 25.1361C111.701 18.4261 104.995 11.9101 97.779 11.9091C95.6965 11.9064 93.6515 12.4635 91.858 13.5221C60.964 31.6141 32.671 54.695 13.004 83.539C7.02902 92.302 15.604 100.553 24.244 100.553C24.344 100.553 24.444 100.553 24.544 100.553C16.82 111.146 9.35502 121.899 2.37902 132.953C-2.38298 140.502 3.69703 150.3 13.085 150.3C13.877 150.3 14.685 150.319 15.492 150.319C16.9818 150.361 18.4709 150.217 19.925 149.89C20.9121 149.634 21.8609 149.248 22.747 148.743C17.641 158.188 13.447 168.202 11.759 178.531C10.978 183.283 12.329 188 16.175 190.77C12.59 202.27 12.816 213.815 22.033 222.689C23.1133 223.742 24.3718 224.595 25.75 225.209C24.301 229.896 27.296 235.309 31.632 237.669C33.4716 238.693 35.5405 239.236 37.646 239.245C39.5941 239.197 41.5104 238.741 43.271 237.906C45.0315 237.071 46.597 235.875 47.866 234.396C44.4274 240.072 41.075 245.788 37.809 251.545C33.057 259.951 40.698 269.099 49.009 269.099C50.5583 269.087 52.0893 268.764 53.5109 268.148C54.9325 267.532 56.2157 266.636 57.284 265.514C57.418 265.38 57.542 265.24 57.676 265.107C86.159 214.486 122.484 167.674 161.163 123.445C175.41 107.15 190.088 91.1914 205.195 75.5701C170.824 115.736 138.735 157.643 107.744 199.592C94.6727 217.283 81.7494 235.067 68.974 252.944C69.435 252.418 69.914 251.906 70.374 251.377C64.2096 264.086 58.8327 277.163 54.274 290.532C51.549 298.569 59.024 304.985 66.624 304.985C69.7274 305.023 72.7262 303.865 74.999 301.751C77.8244 299.111 80.591 296.423 83.299 293.688C80.9412 303.397 79.3817 313.283 78.636 323.247C78.152 329.775 85.193 334.905 91.808 334.905C93.105 334.914 94.3938 334.7 95.619 334.275C94.073 336.352 92.52 338.422 90.96 340.486C87.06 345.635 89.95 353.286 95.409 356.261C97.257 357.284 99.3336 357.824 101.446 357.831C103.584 357.783 105.681 357.244 107.577 356.254C109.472 355.264 111.113 353.851 112.374 352.124C122.143 339.224 131.509 326.065 140.707 312.799C142.592 315.41 145.361 317.246 148.5 317.964C137.785 333.038 128.763 349.248 121.6 366.299C119.192 372.175 124.213 378.933 130.258 380.481C131.35 380.765 132.472 380.91 133.6 380.913C139.08 380.913 143.5 377.331 145.513 372.427C155.104 349.019 170.395 327.686 186.719 307.746C226.297 241.017 274.563 179.293 325.48 120.955C345.273 98.275 365.609 76.0891 386.489 54.3971C374.826 68.0444 363.329 81.8331 351.999 95.7631C356.181 91.4057 360.416 87.094 364.705 82.828C354.277 94.971 343.73 107.028 333.205 119.089C304.787 154.766 277.266 191.062 250.305 227.4C235.216 247.733 220.263 268.164 205.445 288.692C200.636 296.017 195.793 303.323 190.918 310.608C174.379 335.239 157.279 359.533 139.618 383.49C135.789 388.677 138.556 396.262 144.069 399.262C145.923 400.287 148.006 400.827 150.125 400.831C152.261 400.795 154.36 400.261 156.253 399.272C158.147 398.282 159.783 396.864 161.032 395.131C164.341 390.652 167.625 386.159 170.884 381.653C171.526 383.745 172.685 385.64 174.256 387.164C175.826 388.687 177.756 389.789 179.866 390.367C180.963 390.653 182.092 390.799 183.225 390.803C188.71 390.803 193.041 387.194 195.119 382.315C219.239 325.664 253.067 272.678 289.826 222.406C302.525 205.039 315.682 187.972 329.297 171.206C298.745 213.955 270.625 258.258 243.603 302.516C220.603 340.186 198.375 378.26 176.003 416.253C170.703 425.261 179.272 433.599 187.613 433.599C189.61 433.623 191.577 433.105 193.303 432.1C195.028 431.094 196.449 429.639 197.413 427.89C203.703 417.215 209.99 406.529 216.273 395.833C215.838 397.005 215.381 398.177 214.965 399.357C210.22 412.793 206.888 427.557 210.182 441.608C211.539 447.396 216.152 449.9 220.994 449.9C228.304 449.9 236.138 444.2 234.094 435.476C234 435.07 233.923 434.662 233.839 434.252C233.79 433.925 233.739 433.577 233.722 433.368C233.599 431.748 233.569 430.123 233.631 428.5C233.667 427.109 233.799 425.726 233.951 424.341C234.015 423.896 234.151 422.909 234.194 422.641C234.418 421.36 234.694 420.088 234.979 418.816C237.004 409.68 240.403 400.816 244.115 392.173C252.272 373.182 264.945 351.814 276.853 332.885C300.939 294.603 328.004 257.934 354.018 220.776C378.935 185.192 404.124 149.537 433.995 117.323C450.088 99.9493 467.632 83.9791 486.438 69.5861C422.093 160.547 350.249 246.915 290.994 340.986C269.842 374.565 250.435 409.14 234.094 444.986C231.456 450.772 232.162 457.286 238.542 460.759C240.485 461.775 242.65 462.293 244.842 462.268C249.185 462.268 253.592 460.368 255.512 456.623C280.741 407.35 310.555 360.141 342.312 314.289C376.998 264.156 414.278 215.867 453.998 169.62C469.946 151.074 486.32 132.778 503.257 114.954C488.412 135.972 472.626 156.438 456.584 176.626C419.431 223.379 380.428 268.873 345.1 316.867C308.309 366.846 275.515 420.162 256.226 478.3C253.518 486.466 261.601 492.9 269.171 492.9C271.168 492.971 273.143 492.47 274.865 491.457C276.587 490.444 277.985 488.961 278.893 487.181C291.057 463.989 304.662 441.581 319.626 420.088C306.409 443.708 293.96 467.683 282.281 492.013C279.533 497.752 280.429 504.355 286.73 507.785C288.629 508.806 290.752 509.335 292.908 509.325C295.039 509.366 297.146 508.868 299.032 507.876C300.918 506.883 302.523 505.43 303.696 503.65C315.529 484.425 327.813 465.458 340.548 446.75C367.662 393.724 403.323 344.505 441.582 297.956C455.294 281.268 469.447 264.906 484.041 248.869C450.988 289.98 420.274 332.769 390.657 375.569C386.057 382.216 381.481 388.876 376.93 395.551C375.476 397.76 374.03 399.974 372.591 402.192C359.569 422.344 346.735 443.092 337.724 465.121C335.316 471.003 340.332 477.756 346.384 479.303C347.475 479.586 348.596 479.731 349.723 479.735C355.202 479.735 359.632 476.155 361.638 471.25C367.374 457.221 377.048 440.857 386.3 426.008C388.695 425.031 390.766 423.399 392.276 421.299C396.681 415.156 401.072 409.005 405.451 402.848C403.262 407.832 406.115 414.196 410.945 416.829C412.791 417.852 414.865 418.393 416.976 418.401C419.114 418.348 421.211 417.805 423.107 416.816C425.003 415.827 426.647 414.416 427.913 412.693C439.334 397.808 450.546 382.784 461.547 367.623C460.399 372.102 463.632 377.323 467.63 379.499C469.472 380.513 471.54 381.045 473.643 381.045C476.941 380.988 480.121 379.806 482.655 377.695C491.837 370.295 499.689 361.395 507.417 352.723C518.624 340.142 529.317 327.152 539.844 314.075C557.491 292.156 575.038 269.919 590.689 246.707C596.445 238.172 588.522 230.139 580.16 229.687C580.474 229.22 580.78 228.747 581.093 228.28C559.148 256.285 537.37 284.403 515.264 312.296C511.969 316.453 508.662 320.599 505.341 324.736L504.804 324.717C535.818 284.498 566.59 244.119 597.12 203.581C607.443 187.025 617.229 169.881 623.827 151.717C626.65 143.953 618.843 137.058 611.227 137.057C609.708 137.033 608.2 137.327 606.801 137.919C605.402 138.512 604.142 139.391 603.103 140.499C572.241 173.399 545.861 210.169 519.397 246.141C489.317 287.031 460.061 328.441 430.102 369.406C423.575 378.33 416.977 387.209 410.308 396.043C475.079 305.208 538.748 213.704 601.315 121.531C607.206 112.882 598.97 104.565 590.015 104.565C588.065 104.559 586.136 104.966 584.354 105.759C580.454 107.503 576.686 109.45 573.015 111.551C557.852 131.237 541.909 150.528 525.724 169.602C482.523 220.514 437.055 270.142 396.093 322.314C376.444 347.339 355.67 373.15 336.886 399.814C354.493 372.641 373.224 345.949 392.631 319.647C433.034 264.89 476.346 212.341 522.382 162.227C538.129 145.094 554.292 128.194 570.872 111.527C576.805 104.638 582.763 97.7701 588.745 90.9221C592.312 86.8521 593.719 81.7661 590.684 76.9501C589.496 75.1739 587.883 73.7229 585.992 72.7288C584.1 71.7347 581.991 71.2291 579.854 71.258C577.71 71.2468 575.599 71.782 573.72 72.813C567.002 76.5632 560.563 80.7921 554.452 85.467C543.961 98.133 533.687 110.954 523.838 124.054C523.665 123.903 523.562 123.854 523.493 123.854C523.408 123.854 523.374 123.933 523.325 124.014C523.303 124.062 523.267 124.103 523.223 124.131C523.178 124.159 523.126 124.174 523.073 124.173C522.939 124.163 522.81 124.124 522.693 124.058C527.598 118.087 531.511 110.714 536.055 104.524C542.46 95.7994 549.034 87.2627 555.775 78.914C562.007 68.42 567.909 57.7561 573.392 46.8841C577.762 38.2161 570.739 29.5211 562.45 29.5201C559.284 29.5629 556.246 30.7713 553.915 32.9141C542.074 43.2514 530.531 53.8781 519.287 64.7941C526.687 54.1367 533.952 43.4014 541.081 32.5881C546.381 24.5171 538.837 15.2421 530.125 15.2411C528.02 15.2435 525.951 15.785 524.115 16.8141C473.981 44.5691 431.83 81.3781 396.154 124.114C373.214 151.594 352.518 180.564 332.121 209.714C354.583 177.049 378.253 145.122 403.736 114.342C431.031 81.1692 460.906 50.2061 493.081 21.7421C502.122 13.7951 493.544 2.20105 483.822 2.20105C480.757 2.21719 477.807 3.37112 475.544 5.43905C464.452 15.1884 453.685 25.2234 443.244 35.5441C428.605 51.9507 414.198 68.4601 400.025 85.0721C379.681 108.837 359.686 132.859 339.742 156.915L338.879 156.79C363.073 118.661 392.017 83.1901 423.179 49.6261C431.489 39.1951 439.602 28.6261 447.364 17.8401C453.315 9.58105 445.039 0.714053 436.154 0.714053ZM38.23 134.034C50.659 109.388 69.415 87.4831 88.615 67.1571C95.488 59.8801 102.533 52.7511 109.638 45.6701C101.795 56.3107 93.8837 66.909 85.905 77.465C71.379 96.614 54.315 115.414 38.23 134.034ZM101.751 268.105C130.351 215.934 165.872 170.936 201.191 129.5C213.832 114.665 226.628 100.188 239.475 85.8231C223.875 107.909 208.212 129.887 192.486 151.758C163.886 191.423 132.135 229.881 101.751 268.105ZM502.987 221.932C506.912 215.982 510.912 210.074 514.987 204.207C517.487 200.64 520.029 197.045 522.639 193.458C516.096 202.954 509.544 212.445 502.984 221.932" fill="#053F36"/>
</g>
</g>
</g>
</g>
</g>
</g>
<defs>
<clipPath id="clip0_816_2">
<rect width="625.127" height="510.043" fill="white"/>
</clipPath>
</defs>
</svg>
