<svg width="398" height="337" viewBox="0 0 398 337" fill="none" xmlns="http://www.w3.org/2000/svg">
<g clip-path="url(#clip0_826_2)">
<mask id="mask0_826_2" style="mask-type:luminance" maskUnits="userSpaceOnUse" x="0" y="0" width="398" height="325">
<path d="M397.702 0H0V324.486H397.702V0Z" fill="white"/>
</mask>
<g mask="url(#mask0_826_2)">
<mask id="mask1_826_2" style="mask-type:luminance" maskUnits="userSpaceOnUse" x="0" y="0" width="398" height="325">
<path d="M397.702 0H0V324.486H397.702V0Z" fill="white"/>
</mask>
<g mask="url(#mask1_826_2)">
<g opacity="0.3">
<mask id="mask2_826_2" style="mask-type:luminance" maskUnits="userSpaceOnUse" x="0" y="0" width="398" height="325">
<path d="M397.702 0H0V324.486H397.702V0Z" fill="white"/>
</mask>
<g mask="url(#mask2_826_2)">
<mask id="mask3_826_2" style="mask-type:luminance" maskUnits="userSpaceOnUse" x="0" y="0" width="398" height="325">
<path d="M397.702 0H0V324.486H397.702V0Z" fill="white"/>
</mask>
<g mask="url(#mask3_826_2)">
<path d="M277.478 0.45403C276.209 0.449515 274.958 0.744876 273.825 1.31603C245.064 15.872 222.183 39.891 201.386 62.893C181.839 84.515 163.655 107.154 145.103 129.511C147.461 125.961 149.843 122.423 152.246 118.898C161.513 105.331 171.194 91.983 181.675 79.198C189.398 69.775 198.383 59.798 208.481 51.933C208.798 51.685 209.122 51.448 209.444 51.207C209.655 51.055 210.219 50.644 210.356 50.549C213.805 48.175 215.537 44.249 213.187 40.514C212.383 39.3727 211.318 38.44 210.08 37.7938C208.843 37.1476 207.469 36.8065 206.073 36.799C204.764 36.7773 203.481 37.1555 202.393 37.883C197.793 41.052 191.921 45.383 187.809 48.428C168.446 71.028 150.136 94.407 132.377 117.817C120.397 133.607 108.648 149.548 96.9328 165.51L96.3808 165.46C115.439 131.017 140.381 99.45 167.006 69.769C172.755 63.3584 178.616 57.0367 184.59 50.804C183.513 51.594 182.857 52.064 182.806 52.064C182.755 52.064 183.576 51.369 185.636 49.71C186.978 48.31 188.323 46.9134 189.672 45.52C190.196 44.1615 190.306 42.6778 189.986 41.257C189.667 39.8361 188.933 38.5422 187.877 37.539C186.425 36.1778 184.506 35.4261 182.516 35.439C180.403 35.4649 178.36 36.205 176.721 37.539C175.666 38.383 174.637 39.249 173.597 40.108C172.996 38.5549 171.955 37.2112 170.601 36.2422C169.247 35.2732 167.639 34.7212 165.975 34.654C165.894 34.654 165.813 34.654 165.731 34.654C166.97 33.3067 168.203 31.9554 169.431 30.6C170.436 29.5484 171.109 28.2247 171.368 26.7934C171.627 25.3622 171.46 23.8864 170.887 22.5493C170.315 21.2123 169.362 20.073 168.147 19.2729C166.932 18.4729 165.509 18.0473 164.055 18.049C163.281 18.0526 162.511 18.151 161.762 18.342C159.021 19.0309 156.324 19.8875 153.688 20.907C153.417 18.9724 152.468 17.1966 151.011 15.8953C149.554 14.5941 147.683 13.8516 145.73 13.8C144.36 13.8083 143.019 14.1848 141.845 14.89C132.507 20.3677 123.519 26.4225 114.935 33.019C115.286 32.608 115.635 32.193 115.982 31.781C103.086 46.439 90.0128 60.971 77.2548 75.68C64.5998 90.269 52.1168 105.013 40.4438 120.28C40.3168 120.171 40.2438 120.133 40.1898 120.133C40.1358 120.133 40.1028 120.191 40.0668 120.248C40.0506 120.283 40.0244 120.313 39.9916 120.334C39.9587 120.354 39.9206 120.365 39.8818 120.364C39.7838 120.357 39.6885 120.328 39.6028 120.28C43.2108 115.96 46.0918 110.626 49.4348 106.148C70.6418 77.748 94.3758 52.173 119.635 27.443C123.211 23.156 126.715 18.832 130.094 14.443C133.794 9.64303 128.561 3.28503 123.062 3.28403C121.725 3.28018 120.416 3.67157 119.301 4.40903C103.564 14.714 89.6008 27.872 76.1198 40.641C83.0598 32.764 89.8988 24.811 96.2828 16.541C100.223 11.435 94.7678 5.60803 89.1168 5.60703C87.8518 5.60048 86.6051 5.90983 85.4898 6.50703C80.2458 9.3391 75.1903 12.507 70.3548 15.991C71.0628 11.722 66.7968 7.57703 62.2058 7.57603C60.8809 7.57426 59.5799 7.92862 58.4388 8.60203C38.7848 20.113 20.7848 34.796 8.27283 53.147C4.47283 58.722 9.92483 63.971 15.4238 63.971C15.4868 63.971 15.5488 63.971 15.6118 63.971C10.6978 70.708 5.94883 77.554 1.51083 84.584C-1.51917 89.384 2.34983 95.62 8.32183 95.62C8.82183 95.62 9.33883 95.632 9.85283 95.632C10.8005 95.6585 11.7478 95.5668 12.6728 95.359C13.3024 95.1961 13.9077 94.9507 14.4728 94.629C11.1119 100.516 8.74987 106.92 7.48283 113.58C7.16618 115.011 7.26204 116.502 7.75929 117.88C8.25654 119.258 9.13475 120.467 10.2918 121.366C8.01083 128.68 8.15484 136.027 14.0188 141.673C14.7065 142.342 15.5072 142.884 16.3838 143.273C15.4618 146.255 17.3668 149.698 20.1258 151.2C21.2964 151.851 22.6126 152.195 23.9518 152.2C25.1909 152.169 26.4096 151.879 27.5293 151.348C28.649 150.816 29.6447 150.056 30.4518 149.115C28.2638 152.726 26.1305 156.363 24.0518 160.025C21.0288 165.373 25.8898 171.193 31.1778 171.193C32.1636 171.185 33.1377 170.98 34.0422 170.588C34.9467 170.196 35.7631 169.626 36.4428 168.912C36.5278 168.827 36.6068 168.738 36.6918 168.653C54.8108 136.454 77.9208 106.672 102.528 78.534C111.594 68.1667 120.932 58.014 130.541 48.076C108.674 73.629 88.2588 100.291 68.5408 126.976C60.2248 138.231 52.0032 149.545 43.8758 160.918C44.1688 160.583 44.4758 160.257 44.7658 159.918C40.8446 168.004 37.4245 176.323 34.5248 184.828C32.7908 189.941 37.5468 194.028 42.3818 194.028C44.3562 194.052 46.264 193.315 47.7098 191.97C49.5098 190.291 51.2692 188.581 52.9878 186.84C51.4877 193.017 50.4954 199.306 50.0208 205.645C49.7128 209.798 54.1928 213.062 58.4008 213.062C59.226 213.068 60.0462 212.932 60.8258 212.662C59.8425 213.983 58.8545 215.3 57.8618 216.613C55.3818 219.889 57.2188 224.756 60.6918 226.649C61.8675 227.301 63.1887 227.645 64.5328 227.649C65.8927 227.619 67.2273 227.275 68.4329 226.645C69.6386 226.016 70.6829 225.117 71.4848 224.018C77.6998 215.811 83.6578 207.439 89.5098 199C90.7087 200.661 92.471 201.829 94.4678 202.286C87.6509 211.876 81.9119 222.188 77.3548 233.036C75.8228 236.774 79.0168 241.074 82.8628 242.058C83.5572 242.238 84.2714 242.331 84.9888 242.333C86.6482 242.298 88.2585 241.764 89.6102 240.801C90.9619 239.837 91.9925 238.49 92.5678 236.933C98.6678 222.041 108.398 208.469 118.783 195.783C143.962 153.33 174.669 114.062 207.062 76.948C219.657 62.5207 232.595 48.4067 245.875 34.606C238.455 43.288 231.141 52.0604 223.933 60.923C226.593 58.151 229.288 55.408 232.016 52.694C225.382 60.419 218.672 68.094 211.976 75.763C193.897 98.463 176.388 121.552 159.235 144.67C149.635 157.603 140.122 170.601 130.696 183.664C127.636 188.325 124.555 192.972 121.454 197.607C110.933 213.278 100.054 228.733 88.8168 243.974C86.3808 247.274 88.1408 252.099 91.6478 254.008C92.8274 254.661 94.1528 255.005 95.5008 255.008C96.8601 254.985 98.1953 254.645 99.3999 254.015C100.605 253.385 101.646 252.482 102.44 251.379C104.545 248.53 106.634 245.671 108.708 242.804C109.116 244.135 109.854 245.341 110.853 246.31C111.852 247.279 113.079 247.98 114.422 248.348C115.12 248.53 115.838 248.623 116.559 248.625C118.214 248.58 119.819 248.043 121.167 247.081C122.515 246.119 123.545 244.776 124.126 243.225C139.471 207.184 160.992 173.475 184.378 141.492C192.457 130.443 200.827 119.586 209.489 108.921C190.052 136.121 172.162 164.303 154.971 192.46C140.338 216.426 126.198 240.648 111.962 264.819C108.588 270.55 114.041 275.854 119.348 275.854C120.619 275.87 121.87 275.541 122.969 274.901C124.067 274.261 124.971 273.335 125.585 272.222C129.585 265.431 133.585 258.632 137.585 251.827C137.308 252.573 137.018 253.318 136.753 254.069C133.734 262.617 131.615 272.009 133.71 280.949C134.038 282.505 134.911 283.892 136.173 284.86C137.435 285.828 139.001 286.312 140.589 286.225C145.239 286.225 150.223 282.596 148.924 277.049C148.864 276.791 148.815 276.531 148.762 276.27C148.731 276.062 148.699 275.84 148.687 275.708C148.608 274.677 148.589 273.642 148.629 272.608C148.652 271.723 148.736 270.843 148.829 269.962C148.87 269.679 148.955 269.051 148.984 268.88C149.127 268.065 149.303 267.256 149.484 266.446C150.889 260.627 152.835 254.953 155.296 249.496C160.485 237.414 168.548 223.82 176.124 211.777C191.447 187.421 208.665 164.093 225.215 140.454C241.067 117.816 257.092 95.132 276.096 74.638C286.332 63.5848 297.492 53.4243 309.455 44.267C268.519 102.136 222.813 157.083 185.115 216.927C171.58 238.146 159.486 260.249 148.915 283.089C147.237 286.77 147.686 290.912 151.745 293.124C152.98 293.77 154.356 294.1 155.75 294.084C158.513 294.084 161.317 292.877 162.538 290.493C178.588 259.146 197.556 229.112 217.758 199.941C239.829 168.049 263.55 137.33 288.824 107.911C298.97 96.111 309.387 84.472 320.162 73.133C310.718 86.505 300.675 99.525 290.469 112.369C266.832 142.113 242.019 171.056 219.543 201.589C196.137 233.389 175.273 267.304 163.002 304.289C161.279 309.489 166.421 313.579 171.237 313.579C172.507 313.624 173.764 313.306 174.86 312.661C175.955 312.017 176.844 311.073 177.422 309.941C185.161 295.186 193.816 280.93 203.336 267.257C194.927 282.284 187.008 297.537 179.578 313.015C177.829 316.666 178.4 320.867 182.409 323.049C183.616 323.699 184.968 324.036 186.339 324.029C187.694 324.055 189.035 323.738 190.235 323.107C191.435 322.476 192.456 321.551 193.202 320.419C200.73 308.188 208.545 296.121 216.647 284.219C233.897 250.484 256.584 219.171 280.924 189.557C289.647 178.94 298.651 168.531 307.936 158.328C286.908 184.482 267.368 211.703 248.525 238.928C245.598 243.157 242.687 247.394 239.792 251.641C238.867 253.047 237.946 254.455 237.031 255.866C228.747 268.687 220.581 281.885 214.849 295.901C213.317 299.643 216.508 303.939 220.358 304.924C221.052 305.104 221.765 305.197 222.482 305.199C224.141 305.164 225.752 304.63 227.104 303.667C228.456 302.704 229.487 301.356 230.062 299.799C233.711 290.874 239.862 280.463 245.751 271.016C247.274 270.393 248.591 269.354 249.551 268.016C252.351 264.107 255.145 260.195 257.933 256.278C256.54 259.449 258.355 263.498 261.433 265.173C262.607 265.824 263.927 266.168 265.27 266.173C266.63 266.139 267.964 265.794 269.17 265.165C270.376 264.535 271.422 263.638 272.228 262.542C279.495 253.072 286.628 243.514 293.628 233.869C292.897 236.719 294.954 240.038 297.498 241.424C298.67 242.069 299.985 242.408 301.323 242.408C303.421 242.372 305.444 241.62 307.056 240.277C312.898 235.569 317.893 229.91 322.809 224.39C329.939 216.39 336.74 208.122 343.439 199.802C354.666 185.857 365.829 171.71 375.786 156.943C379.448 151.513 374.408 146.403 369.086 146.115C369.286 145.815 369.48 145.515 369.679 145.215C355.718 163.032 341.863 180.915 327.799 198.666C325.703 201.311 323.599 203.949 321.486 206.58L321.144 206.568C340.877 180.981 360.454 155.292 379.875 129.502C386.443 118.969 392.668 108.06 396.866 96.502C398.666 91.562 393.695 87.176 388.85 87.176C387.883 87.1605 386.924 87.3473 386.034 87.7245C385.144 88.1016 384.343 88.6608 383.682 89.366C364.048 110.296 347.265 133.69 330.429 156.575C311.292 182.589 292.68 208.932 273.62 234.995C269.468 240.672 265.27 246.321 261.027 251.942C302.239 194.165 342.749 135.957 382.555 77.317C386.303 71.817 381.063 66.523 375.364 66.523C374.124 66.5195 372.897 66.7785 371.764 67.283C369.285 68.392 366.886 69.631 364.55 70.968C354.903 83.492 344.761 95.768 334.464 107.9C306.982 140.288 278.055 171.863 251.996 205.055C239.496 220.976 226.279 237.397 214.329 254.36C225.529 237.073 237.447 220.092 249.794 203.36C275.498 168.524 303.053 135.092 332.341 103.21C342.356 92.306 352.638 81.554 363.186 70.954C366.96 66.5714 370.751 62.2017 374.556 57.845C376.825 55.255 377.72 52.02 375.79 48.956C375.034 47.8261 374.008 46.903 372.805 46.2706C371.601 45.6382 370.259 45.3166 368.9 45.335C367.537 45.3282 366.195 45.6686 365 46.324C360.726 48.7097 356.629 51.4 352.742 54.374C346.067 62.432 339.532 70.589 333.266 78.923C333.156 78.823 333.091 78.793 333.046 78.793C333.001 78.793 332.97 78.843 332.939 78.893C332.925 78.9233 332.902 78.9489 332.874 78.9666C332.845 78.9843 332.812 78.9935 332.779 78.993C332.694 78.987 332.612 78.962 332.538 78.92C335.659 75.12 338.148 70.431 341.038 66.493C345.113 60.943 349.294 55.5097 353.582 50.193C357.547 43.517 361.302 36.733 364.79 29.816C367.57 24.301 363.102 18.77 357.829 18.769C355.815 18.7963 353.882 19.5649 352.399 20.928C344.866 27.5067 337.522 34.2684 330.368 41.213C335.075 34.433 339.697 27.6034 344.234 20.724C347.607 15.589 342.806 9.68903 337.264 9.68803C335.925 9.68947 334.609 10.0337 333.441 10.688C301.545 28.354 274.729 51.773 252.032 78.962C237.438 96.445 224.271 114.875 211.295 133.42C225.585 112.639 240.644 92.327 256.856 72.745C274.221 51.6412 293.227 31.9432 313.697 13.835C319.449 8.77903 313.992 1.40303 307.807 1.40303C305.857 1.41317 303.979 2.1473 302.54 3.46303C295.483 9.66303 288.634 16.0474 281.993 22.616C272.679 33.054 263.513 43.557 254.493 54.125C241.55 69.244 228.83 84.525 216.142 99.831L215.593 99.751C230.985 75.493 249.399 52.928 269.226 31.574C274.513 24.938 279.674 18.217 284.612 11.352C288.399 6.09603 283.131 0.45403 277.478 0.45403ZM24.3218 85.272C32.2288 69.592 44.1618 55.656 56.3788 42.725C60.7548 38.096 65.2338 33.56 69.7548 29.054C64.7622 35.8247 59.7288 42.5677 54.6548 49.283C45.4108 61.464 34.5548 73.426 24.3218 85.272ZM64.7338 170.567C82.9268 137.376 105.528 108.749 127.997 82.387C136.039 72.949 144.18 63.739 152.353 54.6C142.429 68.6507 132.464 82.633 122.455 96.547C104.26 121.782 84.0598 146.247 64.7298 170.566M319.994 141.191C322.491 137.406 325.036 133.647 327.63 129.915C329.218 127.645 330.838 125.359 332.498 123.076C328.335 129.117 324.168 135.156 319.998 141.191" fill="#0F8876"/>
</g>
</g>
</g>
</g>
</g>
<g opacity="0.471">
<mask id="mask4_826_2" style="mask-type:luminance" maskUnits="userSpaceOnUse" x="20" y="52" width="358" height="285">
<path d="M377.434 52.47H20.269V336.394H377.434V52.47Z" fill="white"/>
</mask>
<g mask="url(#mask4_826_2)">
<path d="M265.461 165.597C265.947 164.555 265.999 163.363 265.605 162.283C265.212 161.203 264.406 160.323 263.364 159.838C262.322 159.352 261.13 159.3 260.05 159.693C258.97 160.087 258.09 160.893 257.604 161.935C253.616 170.536 251.954 180.033 252.783 189.478C253.613 198.922 256.905 207.984 262.331 215.758C262.999 216.677 264.001 217.297 265.122 217.485C266.243 217.673 267.392 217.413 268.323 216.761C269.254 216.109 269.892 215.118 270.099 214.001C270.306 212.884 270.066 211.73 269.431 210.788C264.874 204.261 262.109 196.653 261.412 188.723C260.715 180.793 262.111 172.819 265.46 165.597" fill="#9BFFEC"/>
<path d="M368.064 149.587C359.025 133.905 344.317 122.286 326.968 117.122C309.62 111.958 290.952 113.643 274.808 121.829L257.464 91.787L265.05 78.645H280.207C282.795 78.6437 285.325 77.8753 287.477 76.4368C289.628 74.9983 291.305 72.9543 292.296 70.5632C293.286 68.172 293.545 65.5409 293.041 63.0024C292.536 60.4638 291.291 58.1318 289.461 56.301C288.249 55.0818 286.806 54.1154 285.217 53.4576C283.628 52.7998 281.925 52.4638 280.205 52.469H245.429C244.28 52.469 243.177 52.9256 242.365 53.7384C241.552 54.5512 241.095 55.6535 241.095 56.803C241.095 57.9524 241.552 59.0548 242.365 59.8676C243.177 60.6804 244.28 61.137 245.429 61.137H280.21C281.371 61.1545 282.478 61.6278 283.293 62.4547C284.107 63.2816 284.564 64.3957 284.564 65.5565C284.564 66.7172 284.107 67.8314 283.293 68.6583C282.478 69.4852 281.371 69.9585 280.21 69.976H262.629C262.046 69.9646 261.467 70.0712 260.926 70.2892C260.385 70.5073 259.894 70.8324 259.482 71.245C259.19 71.5354 258.942 71.8665 258.745 72.228L250.845 85.912C250.859 87.001 250.371 88.036 250.415 89.118C252.573 141.652 198.924 177.918 198.924 177.918C198.924 177.918 194.024 178.549 184.924 169.65C141.678 127.35 147.031 97.813 144.899 87.45H104.969C103.82 87.45 102.717 87.9066 101.905 88.7194C101.092 89.5322 100.635 90.6345 100.635 91.784C100.635 92.9334 101.092 94.0358 101.905 94.8486C102.717 95.6614 103.82 96.118 104.969 96.118H137.344L122.61 121.645C108.998 114.864 93.5634 112.647 78.5931 115.325C63.6228 118.003 49.9133 125.432 39.4957 136.511C29.0782 147.59 22.5068 161.731 20.7552 176.838C19.0036 191.944 22.1651 207.213 29.7711 220.383C37.3771 233.552 49.023 243.921 62.9835 249.953C76.9439 255.985 92.4761 257.359 107.279 253.872C122.082 250.386 135.367 242.223 145.168 230.594C154.968 218.965 160.762 204.489 161.69 189.309H198.656C199.693 189.31 200.695 188.939 201.48 188.263C203.752 186.312 254.344 142.471 256.974 108.276L267.332 126.216C252.425 136.21 241.874 151.495 237.815 168.977C233.755 186.458 236.491 204.829 245.469 220.369C250.113 228.423 256.299 235.482 263.673 241.143C271.047 246.805 279.464 250.958 288.444 253.364C297.424 255.771 306.79 256.384 316.007 255.168C325.223 253.953 334.11 250.933 342.159 246.281C350.209 241.633 357.265 235.446 362.923 228.071C368.582 220.697 372.733 212.28 375.138 203.301C377.544 194.322 378.158 184.958 376.944 175.742C375.731 166.526 372.714 157.64 368.066 149.59M91.0573 247.09C81.7103 247.096 72.4826 244.992 64.0618 240.935C55.6411 236.878 48.2445 230.973 42.4233 223.66C36.602 216.347 32.5063 207.815 30.4413 198.699C28.3763 189.583 28.3952 180.118 30.4967 171.011C32.5983 161.903 36.7282 153.387 42.5787 146.097C48.4292 138.808 55.8494 132.933 64.2863 128.91C72.7232 124.887 81.9593 122.82 91.3062 122.863C100.653 122.906 109.87 125.058 118.269 129.158L87.2933 182.808C86.9131 183.467 86.713 184.214 86.7132 184.975C86.7133 185.736 86.9137 186.483 87.2941 187.142C87.6746 187.8 88.2217 188.347 88.8805 188.728C89.5393 189.108 90.2866 189.308 91.0473 189.308H152.999C151.887 204.984 144.88 219.658 133.388 230.377C121.896 241.097 106.771 247.067 91.0553 247.088M98.5553 180.639L125.774 133.496C133.593 138.772 140.107 145.759 144.824 153.927C149.54 162.095 152.335 171.23 152.996 180.639H98.5553ZM161.688 180.639C161.011 169.707 157.807 159.082 152.328 149.598C146.849 140.114 139.244 132.031 130.112 125.984L140.338 108.274C142.351 134.451 172.462 166.274 187.498 180.64L161.688 180.639ZM366.76 201.051C363.222 214.248 355.433 225.91 344.599 234.235C333.765 242.559 320.49 247.081 306.827 247.102C295.917 247.088 285.201 244.21 275.75 238.758C266.3 233.305 258.446 225.468 252.972 216.03C245.145 202.482 242.723 186.477 246.19 171.219C249.657 155.961 258.758 142.575 271.672 133.74L302.506 187.145C302.791 187.638 303.17 188.07 303.621 188.416C304.073 188.763 304.588 189.017 305.138 189.164C305.688 189.312 306.261 189.349 306.825 189.275C307.39 189.201 307.934 189.016 308.427 188.731C308.92 188.447 309.352 188.068 309.698 187.617C310.045 187.165 310.299 186.65 310.446 186.1C310.594 185.55 310.631 184.977 310.557 184.412C310.483 183.848 310.298 183.304 310.013 182.811L279.148 129.347C289.854 124.032 301.866 121.918 313.742 123.26C325.619 124.602 336.857 129.343 346.106 136.913C355.356 144.483 362.225 154.561 365.888 165.938C369.552 177.315 369.856 189.508 366.762 201.053" fill="#9BFFEC"/>
</g>
</g>
</g>
<defs>
<clipPath id="clip0_826_2">
<rect width="397.702" height="336.395" fill="white"/>
</clipPath>
</defs>
</svg>
