<svg width="27" height="27" viewBox="0 0 27 27" fill="none" xmlns="http://www.w3.org/2000/svg">
<g clip-path="url(#clip0_803_518)">
<mask id="mask0_803_518" style="mask-type:luminance" maskUnits="userSpaceOnUse" x="0" y="0" width="27" height="27">
<path d="M26.398 0H0V26.398H26.398V0Z" fill="white"/>
</mask>
<g mask="url(#mask0_803_518)">
<path fill-rule="evenodd" clip-rule="evenodd" d="M13.2 0C15.8107 0 18.3628 0.774166 20.5335 2.2246C22.7043 3.67504 24.3961 5.73659 25.3952 8.14858C26.3943 10.5606 26.6557 13.2146 26.1464 15.7752C25.637 18.3357 24.3799 20.6878 22.5338 22.5338C20.6878 24.3799 18.3357 25.637 15.7752 26.1464C13.2146 26.6557 10.5606 26.3943 8.14858 25.3952C5.73659 24.3961 3.67504 22.7043 2.2246 20.5335C0.774166 18.3628 0 15.8107 0 13.2C0 9.69914 1.39071 6.34167 3.86619 3.86619C6.34167 1.39071 9.69914 0 13.2 0Z" fill="white"/>
<path fill-rule="evenodd" clip-rule="evenodd" d="M15.359 20.394C13.582 20.394 11.828 20.426 10.042 20.362C9.12349 20.3993 8.21245 20.1827 7.40902 19.736C6.19602 18.871 6.06502 17.689 6.00902 16.264C5.95402 14.748 5.98702 12.933 5.98102 11.396C5.86681 10.1132 6.05165 8.82132 6.52102 7.62199C6.80161 7.16244 7.19334 6.78088 7.66011 6.51246C8.12688 6.24403 8.65369 6.09738 9.19201 6.08599C10.375 5.96499 12.728 6.00399 14.122 6.00499C15.5506 5.90886 16.9855 6.02717 18.379 6.35599C20.703 7.28199 20.396 10.017 20.403 12.081C20.403 13.529 20.436 15.923 20.332 17.081C20.3442 17.796 20.1111 18.4936 19.6715 19.0577C19.2319 19.6217 18.6123 20.0181 17.916 20.181C17.0723 20.3393 16.2141 20.4064 15.356 20.381M10.891 4.431C9.07101 4.469 7.63001 4.48899 6.26101 5.54899C4.46101 6.93999 4.43002 9.04899 4.40902 11.133C4.39402 12.605 4.33501 16.174 4.51501 17.581C4.58368 18.4102 4.87294 19.206 5.3528 19.8858C5.83265 20.5656 6.48563 21.1046 7.24402 21.447C8.48678 21.8772 9.80235 22.0573 11.115 21.977C12.568 21.995 14.065 22.01 15.515 21.977C20.615 21.871 21.929 20.252 21.989 15.277C22.006 13.833 22.057 10.195 21.87 8.80899C21.348 4.94099 18.496 4.46699 15.251 4.42299C13.812 4.40299 12.328 4.39699 10.889 4.42299M13.05 10.273C13.576 10.2484 14.0988 10.3662 14.5635 10.6139C15.0281 10.8616 15.4173 11.2302 15.6899 11.6806C15.9626 12.1311 16.1086 12.6468 16.1127 13.1733C16.1167 13.6998 15.9786 14.2177 15.7129 14.6723C15.4472 15.1269 15.0638 15.5013 14.603 15.7562C14.1423 16.0111 13.6213 16.1369 13.095 16.1204C12.5687 16.1038 12.0566 15.9456 11.6128 15.6624C11.1689 15.3791 10.8097 14.9813 10.573 14.511C10.357 14.0749 10.2527 13.5919 10.2695 13.1055C10.2862 12.6191 10.4236 12.1445 10.6692 11.7243C10.9148 11.3041 11.2609 10.9516 11.6765 10.6982C12.092 10.4449 12.564 10.2988 13.05 10.273ZM12.95 8.694C12.0593 8.74445 11.2036 9.05806 10.4912 9.59513C9.77882 10.1322 9.24181 10.8686 8.94816 11.711C8.65452 12.5534 8.61744 13.464 8.84162 14.3276C9.0658 15.1911 9.54116 15.9687 10.2075 16.5619C10.8739 17.1551 11.7013 17.5372 12.5849 17.6599C13.4686 17.7826 14.3688 17.6404 15.1716 17.2512C15.9744 16.862 16.6436 16.2434 17.0946 15.4736C17.5456 14.7038 17.758 13.8176 17.705 12.927C17.6326 11.7371 17.0917 10.6245 16.2007 9.8326C15.3096 9.04073 14.1411 8.63418 12.951 8.70199M17.77 7.46999C17.4914 7.50328 17.2374 7.64589 17.064 7.86643C16.8905 8.08697 16.8117 8.36738 16.845 8.64599C16.8613 8.78409 16.9049 8.91756 16.9733 9.03859C17.0418 9.15963 17.1337 9.2658 17.2437 9.3509C17.3536 9.43601 17.4794 9.49834 17.6138 9.53424C17.7481 9.57014 17.8883 9.57889 18.026 9.55999C18.1641 9.54529 18.2979 9.50287 18.4193 9.43528C18.5406 9.36768 18.6471 9.27631 18.7323 9.16661C18.8176 9.05692 18.8798 8.93116 18.9153 8.79686C18.9508 8.66256 18.9589 8.52248 18.939 8.38499C18.9227 8.24811 18.8795 8.1158 18.8119 7.99566C18.7443 7.87551 18.6536 7.7699 18.5451 7.68489C18.4366 7.59987 18.3123 7.53713 18.1795 7.50025C18.0466 7.46337 17.9068 7.45309 17.77 7.46999Z" fill="#019682"/>
</g>
</g>
<defs>
<clipPath id="clip0_803_518">
<rect width="26.398" height="26.398" fill="white"/>
</clipPath>
</defs>
</svg>
