<svg id="logo" xmlns="http://www.w3.org/2000/svg" viewBox="0 0 935.479 313.781"><defs><style>.cls-1{fill:#9b0033;}</style></defs><title>Logo_Forum_Koszalin_rgb</title><path class="cls-1" d="M877.848,268.834V214.449a3.953,3.953,0,0,0-4.177-4.234,4.024,4.024,0,0,0-4.268,4.234v42.238l-35.467-44.722a4.168,4.168,0,0,0-3.34-1.75c-2.693,0-4.363,1.564-4.363,4.234v54.385a4.223,4.223,0,0,0,8.445,0V226.505l35.558,44.905a3.912,3.912,0,0,0,3.344,1.563,4,4,0,0,0,4.268-4.139m-73.231-.369V214.723a4.22,4.22,0,0,0-4.363-4.508,4.365,4.365,0,0,0-4.546,4.508v53.742a4.42,4.42,0,0,0,4.546,4.508,4.322,4.322,0,0,0,4.363-4.508m-62.48,3.774h33.979a4.224,4.224,0,0,0,4.181-4.234,4.124,4.124,0,0,0-4.181-4.048H746.5V214.723a4.22,4.22,0,0,0-4.363-4.508,4.365,4.365,0,0,0-4.546,4.508v53a4.421,4.421,0,0,0,4.546,4.512m-37.875-23.1H681.608L692.933,223.1Zm-7.335-36.35a4.383,4.383,0,0,0-7.985,0l-24.51,54.2a4.5,4.5,0,0,0-.465,1.841,3.97,3.97,0,0,0,4.177,4.139,4.054,4.054,0,0,0,4-2.575l6.22-13.437h29.152L713.73,270.4a4.052,4.052,0,0,0,3.991,2.575,3.97,3.97,0,0,0,4.181-4.139,4.509,4.509,0,0,0-.464-1.841Zm-47.043,55.4a3.911,3.911,0,0,0-4.082-3.957H614.235l34.257-46.655a4.74,4.74,0,0,0,1.023-2.667,3.666,3.666,0,0,0-3.9-3.96H606.9a3.864,3.864,0,0,0-4.177,3.865,4.03,4.03,0,0,0,4.177,4.143h30.544L603.187,265.7a4.244,4.244,0,0,0-1.019,2.485c0,2.392,1.575,4.051,4.268,4.051H645.8a3.986,3.986,0,0,0,4.082-4.051m-61.316-12.239c0-10.488-8.263-14.448-23.119-19.047-10.678-3.314-15.224-5.246-15.224-10.675,0-5.98,5.847-8.56,14.947-8.56a31.69,31.69,0,0,1,15.875,4.512,3.768,3.768,0,0,0,5.569-3.5c0-2.849-4.363-5.059-7.521-6.258a40.289,40.289,0,0,0-14.018-2.575c-13.924,0-23.765,5.524-23.765,16.564,0,8.65,5.2,13.714,21.722,18.591,11.142,3.309,16.62,5.242,16.62,11.409,0,5.246-4.827,9.2-14.669,9.2-7.612,0-12.348-2.484-17.453-5.706a6.245,6.245,0,0,0-3.158-1.1,3.494,3.494,0,0,0-3.8,3.587,5.591,5.591,0,0,0,2.412,4.143c5.386,4.142,13.741,6.809,21.908,6.809,15.506,0,23.678-7.544,23.678-17.393M517.349,241.6c0,12.607-8.077,23.742-22.468,23.742S472.413,254.2,472.413,241.6s8.081-23.742,22.468-23.742,22.468,11.135,22.468,23.742m8.913,0c0-17.3-12.535-31.75-31.381-31.75S463.5,224.294,463.5,241.6s12.531,31.746,31.377,31.746,31.381-14.448,31.381-31.746M411.9,268.465V253.283l13-12.608,19.216,30.274a4.017,4.017,0,0,0,3.9,2.024,4.228,4.228,0,0,0,4.086-4.047,4.84,4.84,0,0,0-.742-2.485l-20.147-31.655,17.826-17.3a4.164,4.164,0,0,0,1.393-3.222,4.292,4.292,0,0,0-4.364-4.048,3.907,3.907,0,0,0-2.971,1.29L411.9,241.687V214.723a4.223,4.223,0,0,0-4.363-4.508,4.368,4.368,0,0,0-4.55,4.508v53.742a4.422,4.422,0,0,0,4.55,4.508,4.324,4.324,0,0,0,4.363-4.508" transform="translate(-1.998 -3.501)"/><path class="cls-1" d="M880.8,156.708l-42.06-85.519c-1.5-2.963-3.488-4.778-7.148-4.778-4.321,0-7.479,2.637-7.479,7.415v97.38a7.563,7.563,0,1,0,15.126,0v-66.73l34.576,69.7c1.332,2.8,3.325,4.615,6.985,4.615s5.649-1.815,6.981-4.615l34.576-69.7v66.73a7.563,7.563,0,1,0,15.126,0V73.826c0-4.778-3.158-7.415-7.479-7.415-3.656,0-5.654,1.815-7.149,4.778ZM742.321,179.446c29.258,0,46.712-17.629,46.712-45.807V74.488a7.821,7.821,0,0,0-8.145-8.077c-4.656,0-7.814,3.3-7.814,8.077v60.8c0,17.632-10.473,29.825-30.753,29.825s-30.753-12.193-30.753-29.825v-60.8c0-4.779-3.158-8.077-7.814-8.077a7.822,7.822,0,0,0-8.145,8.077v59.151c0,28.178,17.454,45.807,46.712,45.807M630.777,82.229c12.3,0,18.618,8.077,18.618,17.8s-6.315,17.633-18.618,17.633H590.715V82.229Zm-40.062,88.486V131.5h35.242l21.114,42.839c1.328,2.8,3.325,4.451,7.148,4.451a7.688,7.688,0,0,0,7.81-7.909,8.808,8.808,0,0,0-.829-3.462l-18.618-37.73c14.962-4.12,22.772-15,22.772-29.662,0-18.949-12.466-32.294-37.734-32.294H582.9c-4.983,0-8.145,3.3-8.145,8.073v94.911a7.918,7.918,0,0,0,8.145,8.073,7.742,7.742,0,0,0,7.814-8.073M528.878,122.6c0,22.574-14.464,42.512-40.23,42.512s-40.226-19.938-40.226-42.512,14.46-42.513,40.226-42.513,40.23,19.938,40.23,42.513m15.958,0c0-30.978-22.441-56.847-56.188-56.847S432.463,91.622,432.463,122.6s22.441,56.846,56.185,56.846,56.188-25.869,56.188-56.846M420.826,75.146a7.218,7.218,0,0,0-7.479-7.415h-62a7.842,7.842,0,0,0-7.981,7.909v95.239a7.98,7.98,0,0,0,15.959,0V128.53h30.422a7.315,7.315,0,0,0,7.479-7.414,7.417,7.417,0,0,0-7.479-7.415H359.32V82.56h54.027a7.523,7.523,0,0,0,7.479-7.414" transform="translate(-1.998 -3.501)"/><path class="cls-1" d="M274.306,313.629h0a11.4,11.4,0,0,1-16.123,0L126.272,181.714,142.391,165.6,274.306,297.506a11.4,11.4,0,0,1,0,16.123" transform="translate(-1.998 -3.501)"/><path class="cls-1" d="M210.121,313.626h0a11.4,11.4,0,0,1-16.123,0L94.18,213.807,110.3,197.685,210.121,297.5a11.4,11.4,0,0,1,0,16.123" transform="translate(-1.998 -3.501)"/><path class="cls-1" d="M145.832,313.912h0a11.4,11.4,0,0,1-16.123,0L61.892,246.1l16.123-16.122,67.817,67.817a11.4,11.4,0,0,1,0,16.122" transform="translate(-1.998 -3.501)"/><path class="cls-1" d="M81.283,313.942h0a11.4,11.4,0,0,1-16.122,0L37.894,286.676a11.728,11.728,0,0,1,0-16.584l7.829-7.832,35.56,35.56a11.4,11.4,0,0,1,0,16.122" transform="translate(-1.998 -3.501)"/><path class="cls-1" d="M13.455,68.484,5.3,60.328A11.263,11.263,0,0,1,5.3,44.4L42.644,7.054a11.55,11.55,0,0,1,16.339,0,11.243,11.243,0,0,1,0,15.9Z" transform="translate(-1.998 -3.501)"/><path class="cls-1" d="M13.544,132.69l-8.061-8.061a11.4,11.4,0,0,1,0-16.119L107.155,6.838a11.4,11.4,0,0,1,16.118,16.123Z" transform="translate(-1.998 -3.501)"/><path class="cls-1" d="M13.471,197.174l-8.062-8.061a11.4,11.4,0,0,1,0-16.119L171.492,6.912a11.4,11.4,0,0,1,16.123,16.122Z" transform="translate(-1.998 -3.501)"/><path class="cls-1" d="M252.287,7a11.4,11.4,0,0,0-16.122,0L5.455,237.71a11.4,11.4,0,0,0,0,16.122l8.061,8.061,6.421,6.547a11.386,11.386,0,0,1,1.317-14.513c4.449-4.453,13.983-13.755,13.983-13.759l217.05-217.05a11.393,11.393,0,0,0,0-16.118" transform="translate(-1.998 -3.501)"/></svg>