<svg width="60" height="48" viewBox="0 0 60 48" fill="none" xmlns="http://www.w3.org/2000/svg">
<g clip-path="url(#clip0_826_33)">
<path d="M4.806 31.141V33.964H1.27V31.141H0V37.979H1.27V35.049H4.806V37.979H6.076V31.141H4.806Z" fill="white"/>
<mask id="mask0_826_33" style="mask-type:luminance" maskUnits="userSpaceOnUse" x="0" y="0" width="60" height="48">
<path d="M59.421 0H0V47.587H59.421V0Z" fill="white"/>
</mask>
<g mask="url(#mask0_826_33)">
<path d="M7.30622 34.566C7.3034 34.0893 7.39798 33.617 7.58417 33.1782C7.77036 32.7393 8.04424 32.3432 8.389 32.014C8.73376 31.6847 9.14214 31.4294 9.5891 31.2636C10.0361 31.0979 10.5122 31.0252 10.9882 31.05C11.4632 31.0288 11.9376 31.104 12.3827 31.2712C12.8278 31.4383 13.2344 31.694 13.5781 32.0226C13.9217 32.3512 14.1951 32.746 14.382 33.1833C14.5688 33.6205 14.6652 34.091 14.6652 34.5665C14.6652 35.0419 14.5688 35.5125 14.382 35.9497C14.1951 36.3869 13.9217 36.7817 13.5781 37.1104C13.2344 37.439 12.8278 37.6946 12.3827 37.8617C11.9376 38.0289 11.4632 38.1042 10.9882 38.083C10.5121 38.1078 10.0359 38.035 9.58886 37.8692C9.14184 37.7034 8.73341 37.448 8.38864 37.1186C8.04386 36.7893 7.77 36.393 7.58387 35.9541C7.39774 35.5151 7.30326 35.0428 7.30622 34.566ZM13.3912 34.566C13.3912 34.0913 13.2505 33.6273 12.9867 33.2326C12.723 32.8379 12.3482 32.5303 11.9097 32.3487C11.4711 32.167 10.9886 32.1195 10.523 32.2121C10.0574 32.3047 9.62981 32.5333 9.29416 32.8689C8.95852 33.2046 8.72994 33.6322 8.63734 34.0978C8.54473 34.5633 8.59226 35.0459 8.77391 35.4844C8.95556 35.9229 9.26317 36.2978 9.65785 36.5615C10.0525 36.8252 10.5165 36.966 10.9912 36.966C11.309 36.9757 11.6254 36.9202 11.921 36.803C12.2166 36.6859 12.485 36.5094 12.7099 36.2846C12.9347 36.0598 13.1111 35.7913 13.2283 35.4958C13.3455 35.2002 13.4009 34.8838 13.3912 34.566Z" fill="white"/>
<path d="M15.3282 37.257L15.7682 36.271C16.42 36.7572 17.211 37.0209 18.0242 37.023C19.0892 37.023 19.5382 36.642 19.5382 36.134C19.5382 34.659 15.4752 35.626 15.4752 33.086C15.4752 31.986 16.3542 31.044 18.2302 31.044C19.0303 31.0315 19.8182 31.2413 20.5062 31.65L20.1062 32.637C19.5356 32.2962 18.8856 32.1111 18.2212 32.1C17.1662 32.1 16.7362 32.51 16.7362 33.028C16.7362 34.483 20.7902 33.536 20.7902 36.046C20.7902 37.14 19.9012 38.078 18.0262 38.078C17.0605 38.1077 16.1118 37.8193 15.3262 37.257" fill="white"/>
<path d="M27.6971 33.575C27.6971 35.075 26.5831 36.007 24.7861 36.007H23.2431V37.98H21.9731V31.141H24.7861C26.5861 31.141 27.6971 32.059 27.6971 33.573M26.4171 33.573C26.4171 32.713 25.8411 32.215 24.7271 32.215H23.2431V34.931H24.7231C25.8371 34.931 26.4131 34.431 26.4131 33.573" fill="white"/>
<path d="M30.1011 31.1429H28.8311V37.9809H30.1011V31.1429Z" fill="white"/>
<path d="M31.334 34.566C31.3701 33.844 31.6169 33.1484 32.0439 32.5651C32.471 31.9818 33.0595 31.5363 33.7369 31.2838C34.4143 31.0313 35.1508 30.9827 35.8555 31.1441C36.5601 31.3055 37.2021 31.6698 37.702 32.192L36.882 32.964C36.6526 32.7074 36.3708 32.5032 36.0555 32.3652C35.7403 32.2272 35.3991 32.1585 35.055 32.164C34.4177 32.164 33.8065 32.4172 33.3558 32.8678C32.9052 33.3185 32.652 33.9297 32.652 34.567C32.652 35.2043 32.9052 35.8155 33.3558 36.2662C33.8065 36.7168 34.4177 36.97 35.055 36.97C35.4001 36.9755 35.7423 36.9058 36.0578 36.7658C36.3733 36.6257 36.6546 36.4187 36.882 36.159L37.702 36.941C37.2021 37.4632 36.5601 37.8275 35.8555 37.9889C35.1508 38.1503 34.4143 38.1017 33.7369 37.8492C33.0595 37.5966 32.471 37.1512 32.0439 36.5679C31.6169 35.9846 31.3701 35.288 31.334 34.566Z" fill="white"/>
<path d="M38.2658 38.068L38.9658 37.199C39.1061 37.4304 39.302 37.6231 39.5356 37.7597C39.7693 37.8962 40.0333 37.9723 40.3038 37.981C41.0168 37.981 41.3878 37.561 41.3878 36.721V32.208H38.9458V31.141H42.6458V36.65C42.6955 36.9682 42.671 37.2937 42.5742 37.6009C42.4775 37.9081 42.311 38.1888 42.0879 38.4211C41.8648 38.6534 41.5911 38.831 41.288 38.9401C40.9849 39.0492 40.6608 39.0868 40.3408 39.05C39.9404 39.0626 39.5429 38.9797 39.181 38.808C38.8191 38.6364 38.5033 38.381 38.2598 38.063" fill="white"/>
<path d="M44.2422 35.001V31.142H45.5122V34.952C45.5122 36.358 46.1472 36.964 47.2512 36.964C48.3552 36.964 48.9802 36.358 48.9802 34.952V31.142H50.2302V35C50.2405 35.3997 50.1707 35.7974 50.0249 36.1696C49.8791 36.5419 49.6602 36.8813 49.3812 37.1676C49.1021 37.4539 48.7686 37.6815 48.4002 37.8369C48.0318 37.9923 47.636 38.0724 47.2362 38.0724C46.8364 38.0724 46.4406 37.9923 46.0722 37.8369C45.7038 37.6815 45.3703 37.4539 45.0912 37.1676C44.8122 36.8813 44.5933 36.5419 44.4475 36.1696C44.3017 35.7974 44.2319 35.4007 44.2422 35.001Z" fill="white"/>
<path d="M58.219 37.98L58.209 33.448L55.962 37.199H55.395L53.148 33.507V37.981H51.937V31.141H52.982L55.697 35.673L58.365 31.141H59.41L59.42 37.979L58.219 37.98Z" fill="white"/>
<path d="M0 39.994C0.000120429 39.9603 0.00698736 39.9269 0.0201968 39.8958C0.0334061 39.8648 0.0526912 39.8367 0.0769171 39.8132C0.101143 39.7898 0.129821 39.7714 0.161262 39.7591C0.192704 39.7469 0.226275 39.7411 0.26 39.742C0.293196 39.7405 0.326351 39.7457 0.357512 39.7572C0.388673 39.7688 0.41721 39.7865 0.44144 39.8092C0.46567 39.8319 0.485103 39.8593 0.498596 39.8896C0.512088 39.92 0.519365 39.9528 0.52 39.986C0.520703 40.0201 0.514427 40.0541 0.501558 40.0857C0.488688 40.1174 0.469496 40.146 0.445156 40.17C0.420815 40.194 0.39184 40.2127 0.360002 40.2251C0.328165 40.2375 0.294136 40.2432 0.26 40.242C0.226471 40.2435 0.192989 40.2382 0.161564 40.2264C0.13014 40.2146 0.101422 40.1966 0.0771363 40.1734C0.0528509 40.1503 0.0334989 40.1224 0.0202433 40.0916C0.00698769 40.0608 0.000102014 40.0276 0 39.994ZM0.068 40.65H0.451V42.763H0.068V40.65Z" fill="white"/>
<path d="M4.61319 41.549V42.768H4.23019V41.593C4.23019 41.177 4.03019 40.973 3.68219 40.973C3.59201 40.969 3.50206 40.9849 3.41873 41.0197C3.3354 41.0544 3.26073 41.107 3.20003 41.1738C3.13932 41.2406 3.09407 41.32 3.06748 41.4063C3.0409 41.4925 3.03363 41.5836 3.04619 41.673V42.764H2.66319V41.589C2.66319 41.173 2.46319 40.969 2.11619 40.969C2.02601 40.965 1.93606 40.981 1.85273 41.0157C1.7694 41.0504 1.69473 41.103 1.63403 41.1698C1.57332 41.2366 1.52807 41.316 1.50148 41.4023C1.4749 41.4885 1.46763 41.5796 1.48019 41.669V42.76H1.09619V40.642H1.46419V40.958C1.54945 40.8464 1.66076 40.7574 1.78837 40.6989C1.91598 40.6403 2.05601 40.6139 2.19619 40.622C2.34316 40.6116 2.49006 40.643 2.62006 40.7123C2.75006 40.7816 2.85789 40.8862 2.93119 41.014C3.02407 40.8864 3.14712 40.7838 3.28935 40.7154C3.43157 40.647 3.58853 40.6149 3.74619 40.622C3.86698 40.6127 3.98831 40.6305 4.10131 40.6742C4.21431 40.7178 4.3161 40.7862 4.39923 40.8743C4.48236 40.9625 4.54473 41.0681 4.58175 41.1834C4.61877 41.2988 4.62951 41.4209 4.61319 41.541" fill="white"/>
<path d="M5.14802 42.5179C5.14734 42.482 5.15391 42.4464 5.16734 42.4131C5.18077 42.3798 5.20078 42.3495 5.22617 42.3241C5.25156 42.2987 5.28182 42.2787 5.31513 42.2653C5.34844 42.2518 5.38411 42.2453 5.42002 42.246C5.45541 42.2458 5.49047 42.2528 5.52309 42.2665C5.55572 42.2802 5.58524 42.3004 5.60989 42.3258C5.63454 42.3512 5.65381 42.3813 5.66655 42.4143C5.67929 42.4473 5.68523 42.4826 5.68402 42.5179C5.68536 42.5535 5.67953 42.589 5.66689 42.6223C5.65425 42.6556 5.63505 42.6861 5.61043 42.7118C5.5858 42.7376 5.55626 42.7581 5.52355 42.7722C5.49085 42.7863 5.45564 42.7937 5.42002 42.7939C5.38388 42.7942 5.34806 42.7872 5.31467 42.7734C5.28128 42.7596 5.25101 42.7392 5.22564 42.7135C5.20028 42.6877 5.18034 42.6572 5.167 42.6236C5.15367 42.59 5.14721 42.5541 5.14802 42.5179Z" fill="white"/>
<path d="M7.04209 42.544L7.20209 42.244C7.42323 42.3877 7.68134 42.4642 7.94509 42.464C8.30009 42.464 8.44509 42.356 8.44509 42.177C8.44509 41.701 7.10608 42.113 7.10608 41.269C7.10608 40.889 7.44609 40.634 7.99009 40.634C8.25945 40.6296 8.52527 40.6958 8.76109 40.826L8.59709 41.126C8.41402 41.0111 8.20116 40.9526 7.98509 40.958C7.64909 40.958 7.48509 41.082 7.48509 41.25C7.48509 41.75 8.82808 41.342 8.82808 42.166C8.82808 42.549 8.47609 42.793 7.91309 42.793C7.60302 42.801 7.29785 42.7145 7.03809 42.545M8.17709 39.823H8.66509L7.99309 40.343H7.63309L8.17709 39.823Z" fill="white"/>
<path d="M12.568 40.649L11.777 42.768H11.41L10.798 41.161L10.178 42.768H9.80995L9.02295 40.649H9.38695L10.0019 42.336L10.6409 40.649H10.965L11.5919 42.344L12.2239 40.649H12.568Z" fill="white"/>
<path d="M12.6002 42.5179C12.5995 42.482 12.6061 42.4464 12.6195 42.4131C12.6329 42.3798 12.6529 42.3495 12.6783 42.3241C12.7037 42.2987 12.734 42.2787 12.7673 42.2653C12.8006 42.2518 12.8363 42.2453 12.8722 42.246C12.9076 42.2458 12.9426 42.2528 12.9752 42.2665C13.0079 42.2802 13.0374 42.3004 13.062 42.3258C13.0867 42.3512 13.106 42.3813 13.1187 42.4143C13.1314 42.4473 13.1374 42.4826 13.1362 42.5179C13.1375 42.5535 13.1317 42.589 13.119 42.6223C13.1064 42.6556 13.0872 42.6861 13.0626 42.7118C13.038 42.7376 13.0084 42.7581 12.9757 42.7722C12.943 42.7863 12.9078 42.7937 12.8722 42.7939C12.836 42.7942 12.8002 42.7872 12.7668 42.7734C12.7334 42.7596 12.7032 42.7392 12.6778 42.7135C12.6524 42.6877 12.6325 42.6572 12.6192 42.6236C12.6058 42.59 12.5994 42.5541 12.6002 42.5179Z" fill="white"/>
<path d="M17.4118 42.768V40.729L16.4008 42.429H16.2168L15.2058 40.742V42.769H14.8218V39.969H15.1498L16.3168 41.936L17.4678 39.969H17.7958V42.769L17.4118 42.768Z" fill="white"/>
<path d="M20.2098 41.489V42.768H19.8458V42.488C19.7641 42.5932 19.657 42.6759 19.5346 42.7284C19.4121 42.7809 19.2783 42.8014 19.1458 42.788C18.6658 42.788 18.3628 42.532 18.3628 42.164C18.3628 41.824 18.5828 41.544 19.2138 41.544H19.8208V41.468C19.8208 41.144 19.6328 40.956 19.2538 40.956C19.0104 40.9533 18.7733 41.0337 18.5818 41.184L18.4218 40.896C18.6751 40.7105 18.983 40.6148 19.2968 40.624C19.8768 40.624 20.2038 40.904 20.2038 41.483M19.8198 42.115V41.815H19.2288C18.8488 41.815 18.7408 41.963 18.7408 42.143C18.7408 42.355 18.9168 42.487 19.2088 42.487C19.3374 42.4965 19.4657 42.4653 19.5755 42.3978C19.6854 42.3303 19.7712 42.2299 19.8208 42.111" fill="white"/>
<path d="M21.6682 41.781L21.2282 42.189V42.769H20.8442V39.803H21.2282V41.703L22.3832 40.648H22.8472L21.9562 41.523L22.9352 42.766H22.4632L21.6682 41.781Z" fill="white"/>
<path d="M23.0831 42.545L23.2431 42.245C23.4643 42.3887 23.7224 42.4651 23.9861 42.465C24.3421 42.465 24.4861 42.357 24.4861 42.177C24.4861 41.701 23.1471 42.113 23.1471 41.269C23.1471 40.889 23.4871 40.633 24.0311 40.633C24.3005 40.6285 24.5663 40.6947 24.8021 40.825L24.6381 41.125C24.4549 41.0104 24.2422 40.952 24.0261 40.957C23.6901 40.957 23.5261 41.081 23.5261 41.249C23.5261 41.749 24.8691 41.341 24.8691 42.165C24.8691 42.549 24.5171 42.793 23.9531 42.793C23.6431 42.8009 23.3379 42.7144 23.0781 42.545" fill="white"/>
<path d="M27.2791 40.649L26.2521 42.979C26.0641 43.427 25.8201 43.567 25.4971 43.567C25.2972 43.5706 25.1031 43.4993 24.9531 43.367L25.1171 43.079C25.2185 43.1787 25.3549 43.2347 25.4971 43.235C25.6811 43.235 25.7971 43.151 25.8971 42.907L25.9651 42.759L25.0301 40.645H25.4301L26.1701 42.34L26.9021 40.645L27.2791 40.649Z" fill="white"/>
<path d="M31.1342 41.549V42.768H30.7502V41.593C30.7502 41.177 30.5502 40.973 30.2022 40.973C30.112 40.969 30.0221 40.9849 29.9388 41.0197C29.8554 41.0544 29.7808 41.107 29.7201 41.1738C29.6594 41.2406 29.6141 41.32 29.5875 41.4063C29.5609 41.4925 29.5537 41.5836 29.5662 41.673V42.764H29.1822V41.589C29.1822 41.173 28.9822 40.969 28.6352 40.969C28.545 40.965 28.4551 40.981 28.3718 41.0157C28.2884 41.0504 28.2138 41.103 28.1531 41.1698C28.0924 41.2366 28.0471 41.316 28.0205 41.4023C27.9939 41.4885 27.9867 41.5796 27.9992 41.669V42.76H27.6152V40.642H27.9832V40.958C28.0684 40.8465 28.1795 40.7577 28.307 40.6991C28.4344 40.6405 28.5742 40.614 28.7142 40.622C28.8612 40.6116 29.0081 40.643 29.1381 40.7123C29.2681 40.7816 29.3759 40.8862 29.4492 41.014C29.5421 40.8864 29.6652 40.7838 29.8074 40.7154C29.9496 40.647 30.1066 40.6149 30.2642 40.622C30.385 40.6127 30.5063 40.6305 30.6193 40.6742C30.7323 40.7178 30.8341 40.7862 30.9173 40.8743C31.0004 40.9625 31.0628 41.0681 31.0998 41.1834C31.1368 41.2988 31.1476 41.4209 31.1312 41.541" fill="white"/>
<path d="M31.6909 39.994C31.691 39.9603 31.6979 39.9269 31.7111 39.8958C31.7243 39.8648 31.7436 39.8367 31.7678 39.8132C31.7921 39.7898 31.8207 39.7714 31.8522 39.7591C31.8836 39.7469 31.9172 39.7411 31.9509 39.742C31.9841 39.7405 32.0173 39.7457 32.0484 39.7572C32.0796 39.7688 32.1081 39.7865 32.1324 39.8092C32.1566 39.8319 32.176 39.8593 32.1895 39.8896C32.203 39.92 32.2103 39.9528 32.2109 39.986C32.212 40.0549 32.1856 40.1215 32.1376 40.171C32.0896 40.2205 32.0239 40.2489 31.9549 40.25C31.886 40.2511 31.8194 40.2247 31.7699 40.1767C31.7204 40.1287 31.692 40.063 31.6909 39.994ZM31.7589 40.65H32.1429V42.763H31.7589V40.65Z" fill="white"/>
<path d="M33.175 39.802H32.791V42.768H33.175V39.802Z" fill="white"/>
<path d="M33.7549 39.994C33.755 39.9603 33.7619 39.9269 33.7751 39.8958C33.7883 39.8648 33.8076 39.8367 33.8318 39.8132C33.856 39.7898 33.8847 39.7714 33.9161 39.7591C33.9476 39.7469 33.9812 39.7411 34.0149 39.742C34.0481 39.7405 34.0812 39.7457 34.1124 39.7572C34.1436 39.7688 34.1721 39.7865 34.1963 39.8092C34.2205 39.8319 34.24 39.8593 34.2535 39.8896C34.267 39.92 34.2742 39.9528 34.2749 39.986C34.2759 40.0549 34.2496 40.1215 34.2016 40.171C34.1535 40.2205 34.0878 40.2489 34.0189 40.25C33.9499 40.2511 33.8834 40.2247 33.8339 40.1767C33.7844 40.1287 33.7559 40.063 33.7549 39.994ZM33.8229 40.65H34.2069V42.763H33.8229V40.65Z" fill="white"/>
<path d="M36.5491 41.489V42.768H36.1851V42.488C36.1034 42.5932 35.9963 42.6759 35.8739 42.7284C35.7515 42.7809 35.6177 42.8014 35.4851 42.788C35.0051 42.788 34.7021 42.532 34.7021 42.164C34.7021 41.824 34.9221 41.544 35.5531 41.544H36.1601V41.468C36.1601 41.144 35.9721 40.956 35.5931 40.956C35.3497 40.9533 35.1127 41.0337 34.9211 41.184L34.7611 40.896C35.0144 40.7105 35.3223 40.6148 35.6361 40.624C36.2161 40.624 36.5431 40.904 36.5431 41.483M36.1591 42.115V41.815H35.5681C35.1881 41.815 35.0801 41.963 35.0801 42.143C35.0801 42.355 35.2561 42.487 35.5481 42.487C35.6767 42.4965 35.805 42.4653 35.9149 42.3978C36.0247 42.3303 36.1105 42.2299 36.1601 42.111" fill="white"/>
<path d="M39.1941 41.549V42.768H38.8101V41.593C38.8101 41.177 38.6021 40.973 38.2381 40.973C38.1457 40.966 38.0528 40.9796 37.9662 41.0127C37.8796 41.0458 37.8014 41.0977 37.7372 41.1646C37.6729 41.2315 37.6243 41.3118 37.5947 41.3997C37.5652 41.4875 37.5554 41.5809 37.5661 41.673V42.764H37.1821V40.646H37.5501V40.966C37.641 40.8523 37.7578 40.7621 37.8907 40.7029C38.0237 40.6438 38.1689 40.6174 38.3141 40.626C38.4355 40.6165 38.5574 40.6341 38.6711 40.6775C38.7848 40.7209 38.8875 40.789 38.9716 40.877C39.0557 40.965 39.1193 41.0705 39.1576 41.1861C39.1959 41.3016 39.208 41.4242 39.1931 41.545" fill="white"/>
<path d="M41.514 41.489V42.768H41.15V42.488C41.0683 42.5932 40.9612 42.6759 40.8388 42.7284C40.7163 42.7809 40.5825 42.8014 40.45 42.788C39.97 42.788 39.667 42.532 39.667 42.164C39.667 41.824 39.887 41.544 40.518 41.544H41.125V41.468C41.125 41.144 40.937 40.956 40.558 40.956C40.3146 40.9533 40.0775 41.0337 39.886 41.184L39.726 40.896C39.9793 40.7105 40.2872 40.6148 40.601 40.624C41.181 40.624 41.508 40.904 41.508 41.483M41.124 42.115V41.815H40.532C40.152 41.815 40.044 41.963 40.044 42.143C40.044 42.355 40.22 42.487 40.512 42.487C40.6406 42.4965 40.7689 42.4653 40.8787 42.3978C40.9886 42.3303 41.0744 42.2299 41.124 42.111" fill="white"/>
<path d="M44.2679 41.524L43.756 42.044V42.767H43.356V39.967H43.756V41.53L45.2749 39.967H45.731L44.5309 41.226L45.802 42.765H45.334L44.2679 41.524Z" fill="white"/>
<path d="M45.8261 41.704C45.8227 41.4857 45.8844 41.2714 46.0032 41.0883C46.122 40.9052 46.2926 40.7615 46.4932 40.6757C46.6939 40.5898 46.9156 40.5656 47.1301 40.6061C47.3446 40.6466 47.5422 40.75 47.6977 40.9031C47.8533 41.0563 47.9597 41.2522 48.0036 41.466C48.0474 41.6799 48.0266 41.9019 47.9439 42.1039C47.8612 42.3059 47.7202 42.4787 47.539 42.6003C47.3577 42.722 47.1444 42.7869 46.9261 42.787C46.7814 42.7934 46.6369 42.7698 46.5017 42.7179C46.3665 42.666 46.2434 42.5867 46.1402 42.4851C46.037 42.3834 45.9558 42.2616 45.9018 42.1272C45.8478 41.9929 45.822 41.8488 45.8261 41.704ZM47.6411 41.704C47.6346 41.5643 47.5873 41.4295 47.5049 41.3165C47.4226 41.2034 47.3088 41.1171 47.1778 41.0681C47.0468 41.0192 46.9043 41.0098 46.7679 41.0411C46.6316 41.0724 46.5075 41.1431 46.411 41.2444C46.3145 41.3456 46.2499 41.4729 46.2251 41.6106C46.2004 41.7483 46.2166 41.8901 46.2718 42.0187C46.327 42.1472 46.4187 42.2567 46.5355 42.3335C46.6524 42.4104 46.7892 42.4512 46.9291 42.451C47.0261 42.4529 47.1225 42.4345 47.2121 42.3972C47.3016 42.3599 47.3824 42.3043 47.4494 42.2341C47.5164 42.1638 47.568 42.0804 47.601 41.9892C47.634 41.8979 47.6476 41.8008 47.6411 41.704Z" fill="white"/>
<path d="M48.904 39.802H48.52V42.768H48.904V39.802Z" fill="white"/>
<path d="M51.7409 41.709C51.7482 41.8521 51.7256 41.9952 51.6746 42.1292C51.6235 42.2631 51.5451 42.3849 51.4443 42.4868C51.3435 42.5887 51.2226 42.6685 51.0893 42.721C50.9559 42.7736 50.8131 42.7978 50.6699 42.792C50.5243 42.7976 50.3795 42.7677 50.248 42.705C50.1165 42.6423 50.0022 42.5486 49.9149 42.432V42.768H49.5469V39.802H49.9309V40.969C50.0188 40.8581 50.1316 40.7696 50.2602 40.7105C50.3888 40.6514 50.5295 40.6235 50.6709 40.629C50.8138 40.6228 50.9565 40.6466 51.0898 40.6987C51.2231 40.7509 51.344 40.8303 51.4448 40.9319C51.5456 41.0334 51.6241 41.1549 51.6753 41.2886C51.7264 41.4222 51.7491 41.5651 51.7419 41.708M51.3539 41.708C51.3474 41.5685 51.3002 41.4339 51.218 41.3209C51.1358 41.208 51.0223 41.1216 50.8915 41.0725C50.7607 41.0234 50.6184 41.0138 50.4822 41.0448C50.346 41.0758 50.2218 41.1461 50.1252 41.2469C50.0285 41.3478 49.9636 41.4748 49.9384 41.6122C49.9131 41.7496 49.9288 41.8914 49.9834 42.0199C50.0379 42.1485 50.129 42.2583 50.2454 42.3356C50.3617 42.4129 50.4982 42.4545 50.6379 42.455C50.7352 42.4574 50.832 42.4396 50.9221 42.4025C51.0121 42.3654 51.0934 42.3099 51.1608 42.2396C51.2282 42.1693 51.2802 42.0857 51.3134 41.9942C51.3467 41.9026 51.3604 41.8052 51.3539 41.708Z" fill="white"/>
<path d="M54.1712 41.837H52.4532C52.4777 42.0189 52.5709 42.1846 52.7138 42.2999C52.8566 42.4152 53.0382 42.4714 53.2212 42.457C53.3357 42.4612 53.4497 42.4405 53.5553 42.3963C53.661 42.3521 53.7558 42.2854 53.8332 42.201L54.0452 42.449C53.8886 42.6078 53.6893 42.7178 53.4715 42.7658C53.2537 42.8138 53.0266 42.7976 52.8178 42.7194C52.6089 42.6411 52.4272 42.5041 52.2945 42.3248C52.1619 42.1455 52.0839 41.9316 52.0702 41.709C52.0644 41.5671 52.0878 41.4255 52.139 41.2931C52.1901 41.1606 52.2679 41.04 52.3676 40.9389C52.4673 40.8377 52.5867 40.7581 52.7183 40.705C52.85 40.6518 52.9912 40.6263 53.1332 40.63C53.2755 40.6262 53.417 40.6522 53.5487 40.7062C53.6804 40.7603 53.7994 40.8413 53.8979 40.944C53.9965 41.0467 54.0725 41.1689 54.1212 41.3027C54.1698 41.4365 54.1899 41.579 54.1802 41.721C54.1802 41.753 54.1802 41.801 54.1722 41.837M52.4532 41.561H53.8122C53.793 41.3943 53.7131 41.2404 53.5878 41.1287C53.4625 41.017 53.3005 40.9553 53.1327 40.9553C52.9649 40.9553 52.8029 41.017 52.6776 41.1287C52.5523 41.2404 52.4724 41.3943 52.4532 41.561Z" fill="white"/>
<path d="M56.7299 40.649V42.479C56.751 42.6278 56.737 42.7795 56.689 42.9219C56.641 43.0643 56.5603 43.1935 56.4534 43.2992C56.3464 43.4048 56.2163 43.484 56.0733 43.5303C55.9303 43.5766 55.7785 43.5889 55.6299 43.566C55.2665 43.5811 54.9091 43.4694 54.6189 43.25L54.8029 42.95C55.0351 43.1323 55.3227 43.2297 55.6179 43.226C56.1179 43.226 56.3459 42.994 56.3459 42.515V42.347C56.251 42.4547 56.1333 42.5401 56.0013 42.5968C55.8694 42.6535 55.7265 42.6802 55.5829 42.675C55.4456 42.6793 55.3087 42.6559 55.1806 42.6063C55.0524 42.5567 54.9355 42.4819 54.8368 42.3862C54.7381 42.2906 54.6597 42.1761 54.6061 42.0495C54.5525 41.923 54.5249 41.7869 54.5249 41.6495C54.5249 41.5121 54.5525 41.376 54.6061 41.2495C54.6597 41.1229 54.7381 41.0084 54.8368 40.9128C54.9355 40.8171 55.0524 40.7423 55.1806 40.6927C55.3087 40.6431 55.4456 40.6197 55.5829 40.624C55.7314 40.6179 55.8793 40.6461 56.0151 40.7064C56.1509 40.7668 56.271 40.8577 56.3659 40.972V40.644L56.7299 40.649ZM56.3539 41.649C56.3617 41.5031 56.3256 41.3582 56.2501 41.233C56.1747 41.1079 56.0634 41.0083 55.9307 40.9471C55.798 40.8859 55.65 40.8659 55.5058 40.8898C55.3617 40.9136 55.228 40.9802 55.1221 41.0809C55.0161 41.1815 54.9429 41.3117 54.9117 41.4545C54.8806 41.5972 54.893 41.7461 54.9474 41.8817C55.0018 42.0173 55.0956 42.1335 55.2168 42.2152C55.3379 42.2969 55.4808 42.3404 55.6269 42.34C55.7212 42.3472 55.8159 42.3345 55.9049 42.3028C55.9939 42.2711 56.0754 42.221 56.1439 42.1559C56.2124 42.0908 56.2665 42.012 56.3026 41.9247C56.3388 41.8374 56.3563 41.7435 56.3539 41.649Z" fill="white"/>
<path d="M57.2182 41.704C57.2148 41.4857 57.2765 41.2714 57.3953 41.0883C57.5141 40.9052 57.6847 40.7615 57.8853 40.6757C58.086 40.5898 58.3077 40.5656 58.5222 40.6061C58.7367 40.6466 58.9343 40.75 59.0898 40.9031C59.2454 41.0563 59.3518 41.2522 59.3957 41.466C59.4395 41.6799 59.4187 41.9019 59.336 42.1039C59.2533 42.3059 59.1123 42.4787 58.9311 42.6003C58.7498 42.722 58.5365 42.7869 58.3182 42.787C58.1735 42.7934 58.029 42.7698 57.8938 42.7179C57.7586 42.666 57.6355 42.5867 57.5323 42.4851C57.4291 42.3834 57.3479 42.2616 57.2939 42.1272C57.2398 41.9929 57.2141 41.8488 57.2182 41.704ZM59.0332 41.704C59.0267 41.5643 58.9794 41.4295 58.897 41.3165C58.8147 41.2034 58.7009 41.1171 58.5699 41.0681C58.4389 41.0192 58.2964 41.0098 58.16 41.0411C58.0237 41.0724 57.8996 41.1431 57.8031 41.2444C57.7066 41.3456 57.642 41.4729 57.6172 41.6106C57.5925 41.7483 57.6087 41.8901 57.6639 42.0187C57.7191 42.1472 57.8108 42.2567 57.9276 42.3335C58.0445 42.4104 58.1814 42.4512 58.3212 42.451C58.4182 42.4529 58.5146 42.4345 58.6042 42.3972C58.6937 42.3599 58.7745 42.3043 58.8415 42.2341C58.9084 42.1638 58.9601 42.0804 58.9931 41.9892C59.0261 41.8979 59.0397 41.8008 59.0332 41.704Z" fill="white"/>
<path d="M20.9942 45.446L20.2022 47.565H19.8342L19.2222 45.958L18.6022 47.565H18.2342L17.4482 45.446H17.8112L18.4262 47.133L19.0672 45.446H19.3912L20.0182 47.141L20.6502 45.446H20.9942Z" fill="white"/>
<path d="M23.4232 46.3199L22.9112 46.84V47.5629H22.5112V44.7629H22.9112V46.3259L24.4302 44.7629H24.8862L23.6862 46.0219L24.9572 47.5609H24.4892L23.4232 46.3199Z" fill="white"/>
<path d="M24.9809 46.504C24.9775 46.2857 25.0392 46.0714 25.158 45.8883C25.2768 45.7052 25.4474 45.5615 25.648 45.4757C25.8487 45.3898 26.0704 45.3656 26.2849 45.4061C26.4994 45.4466 26.697 45.55 26.8525 45.7031C27.008 45.8563 27.1145 46.0522 27.1583 46.266C27.2022 46.4799 27.1814 46.7019 27.0987 46.9039C27.016 47.1059 26.875 47.2787 26.6938 47.4003C26.5125 47.522 26.2992 47.5869 26.0809 47.587C25.9362 47.5934 25.7917 47.5698 25.6565 47.5179C25.5213 47.4659 25.3982 47.3867 25.295 47.2851C25.1918 47.1834 25.1106 47.0616 25.0566 46.9272C25.0025 46.7929 24.9768 46.6488 24.9809 46.504ZM26.7959 46.504C26.7894 46.3642 26.742 46.2294 26.6596 46.1164C26.5772 46.0033 26.4634 45.917 26.3323 45.8681C26.2013 45.8191 26.0587 45.8098 25.9224 45.8412C25.786 45.8726 25.6619 45.9434 25.5655 46.0447C25.469 46.146 25.4045 46.2735 25.3798 46.4112C25.3552 46.5489 25.3715 46.6909 25.4269 46.8194C25.4822 46.9478 25.5741 47.0573 25.6911 47.134C25.808 47.2107 25.945 47.2514 26.0849 47.251C26.1821 47.2535 26.2786 47.2356 26.3685 47.1985C26.4583 47.1613 26.5393 47.1057 26.6063 47.0354C26.6733 46.965 26.7248 46.8813 26.7574 46.7898C26.7901 46.6982 26.8032 46.6009 26.7959 46.504Z" fill="white"/>
<path d="M27.4332 47.34L27.5932 47.04C27.8146 47.1839 28.0731 47.2603 28.3372 47.26C28.6932 47.26 28.8372 47.152 28.8372 46.972C28.8372 46.496 27.4982 46.908 27.4982 46.064C27.4982 45.684 27.8382 45.429 28.3822 45.429C28.6516 45.4245 28.9174 45.4907 29.1532 45.621L28.9892 45.921C28.806 45.8064 28.5932 45.7479 28.3772 45.753C28.0412 45.753 27.8772 45.877 27.8772 46.045C27.8772 46.545 29.2202 46.137 29.2202 46.961C29.2202 47.345 28.8682 47.588 28.3042 47.588C27.9941 47.5959 27.689 47.5094 27.4292 47.34" fill="white"/>
<path d="M31.254 47.246V47.562H29.479V47.314L30.73 45.759H29.503V45.446H31.222V45.698L29.971 47.249L31.254 47.246Z" fill="white"/>
<path d="M33.4032 46.284V47.563H33.0391V47.283C32.9574 47.3882 32.8504 47.471 32.7279 47.5234C32.6055 47.5759 32.4717 47.5964 32.3391 47.583C31.8591 47.583 31.5562 47.327 31.5562 46.959C31.5562 46.619 31.7762 46.339 32.4072 46.339H33.0141V46.263C33.0141 45.939 32.8262 45.751 32.4462 45.751C32.2031 45.7486 31.9664 45.829 31.7751 45.979L31.6151 45.691C31.8684 45.5055 32.1763 45.4098 32.4901 45.419C33.0701 45.419 33.3971 45.699 33.3971 46.278M33.0132 46.91V46.61H32.4221C32.0421 46.61 31.9341 46.758 31.9341 46.938C31.9341 47.15 32.1101 47.282 32.4021 47.282C32.5307 47.2915 32.659 47.2603 32.7689 47.1928C32.8787 47.1253 32.9645 47.025 33.0141 46.906" fill="white"/>
<path d="M34.4221 44.597H34.0381V47.563H34.4221V44.597Z" fill="white"/>
<path d="M35.001 44.789C35.0011 44.7552 35.008 44.7218 35.0212 44.6908C35.0344 44.6598 35.0537 44.6317 35.0779 44.6082C35.1021 44.5847 35.1308 44.5663 35.1622 44.5541C35.1937 44.5418 35.2273 44.536 35.261 44.537C35.3099 44.5389 35.3571 44.5552 35.3968 44.5837C35.4366 44.6123 35.4671 44.6519 35.4845 44.6976C35.502 44.7433 35.5056 44.7931 35.4951 44.8408C35.4845 44.8886 35.4601 44.9322 35.425 44.9663C35.3898 45.0003 35.3455 45.0233 35.2974 45.0324C35.2493 45.0415 35.1996 45.0363 35.1545 45.0174C35.1094 44.9985 35.0708 44.9668 35.0435 44.9262C35.0162 44.8856 35.0014 44.8379 35.001 44.789ZM35.069 45.444H35.453V47.563H35.073L35.069 45.444Z" fill="white"/>
<path d="M38.1092 46.344V47.563H37.7252V46.388C37.7252 45.972 37.5172 45.768 37.1532 45.768C37.0607 45.761 36.9678 45.7746 36.8812 45.8077C36.7946 45.8408 36.7164 45.8927 36.6522 45.9596C36.588 46.0265 36.5393 46.1067 36.5098 46.1946C36.4802 46.2825 36.4704 46.3759 36.4812 46.468V47.559H36.0972V45.441H36.4652V45.761C36.556 45.6473 36.6728 45.5571 36.8057 45.4979C36.9387 45.4387 37.0839 45.4124 37.2292 45.421C37.3505 45.4115 37.4725 45.429 37.5862 45.4725C37.6999 45.5159 37.8025 45.584 37.8866 45.672C37.9708 45.7599 38.0343 45.8655 38.0726 45.981C38.1109 46.0966 38.1231 46.2192 38.1082 46.34" fill="white"/>
<path d="M38.6602 44.789C38.6603 44.7552 38.6671 44.7218 38.6803 44.6908C38.6936 44.6598 38.7128 44.6317 38.7371 44.6082C38.7613 44.5847 38.79 44.5663 38.8214 44.5541C38.8529 44.5418 38.8864 44.536 38.9202 44.537C38.969 44.5389 39.0163 44.5552 39.056 44.5837C39.0957 44.6123 39.1262 44.6519 39.1437 44.6976C39.1611 44.7433 39.1648 44.7931 39.1542 44.8408C39.1436 44.8886 39.1193 44.9322 39.0841 44.9663C39.049 45.0003 39.0046 45.0233 38.9566 45.0324C38.9085 45.0415 38.8588 45.0363 38.8137 45.0174C38.7685 44.9985 38.7299 44.9668 38.7027 44.9262C38.6754 44.8856 38.6606 44.8379 38.6602 44.789ZM38.7281 45.444H39.1122V47.563H38.7281V45.444Z" fill="white"/>
<path d="M41.6918 46.632H39.9698C39.9941 46.8138 40.0871 46.9795 40.2298 47.0948C40.3724 47.2101 40.5539 47.2664 40.7368 47.252C40.8513 47.2562 40.9653 47.2354 41.0709 47.1912C41.1766 47.147 41.2714 47.0804 41.3488 46.996L41.5608 47.244C41.4041 47.4024 41.2049 47.5122 40.9873 47.56C40.7696 47.6078 40.5428 47.5916 40.3341 47.5133C40.1255 47.4351 39.9439 47.2982 39.8113 47.1191C39.6787 46.94 39.6007 46.7264 39.5868 46.504C39.581 46.3621 39.6044 46.2205 39.6556 46.088C39.7067 45.9556 39.7845 45.835 39.8842 45.7339C39.9839 45.6327 40.1032 45.5531 40.2349 45.4999C40.3666 45.4468 40.5078 45.4213 40.6498 45.425C40.7921 45.4206 40.9338 45.4461 41.0657 45.4997C41.1976 45.5534 41.3168 45.634 41.4157 45.7365C41.5146 45.8389 41.5909 45.961 41.6399 46.0947C41.6888 46.2284 41.7092 46.3709 41.6998 46.513C41.6998 46.545 41.6998 46.593 41.6918 46.629M39.9698 46.356H41.3288C41.3096 46.1892 41.2297 46.0354 41.1044 45.9237C40.9791 45.812 40.8171 45.7503 40.6493 45.7503C40.4815 45.7503 40.3195 45.812 40.1942 45.9237C40.0689 46.0354 39.989 46.1892 39.9698 46.356Z" fill="white"/>
<path d="M55.4992 12.639L41.6822 0.636972C41.1942 0.22588 40.5767 0.000427246 39.9387 0.000427246C39.3006 0.000427246 38.6831 0.22588 38.1952 0.636972L32.0632 5.97497C31.756 6.24253 31.3625 6.38994 30.9552 6.38997H27.8552C27.4478 6.38994 27.0543 6.24253 26.7472 5.97497L20.6192 0.636972C20.1312 0.22588 19.5137 0.000427246 18.8757 0.000427246C18.2376 0.000427246 17.6201 0.22588 17.1322 0.636972L3.31116 12.637C3.00347 12.8274 2.77122 13.1185 2.65391 13.4609C2.5366 13.8032 2.54146 14.1756 2.66767 14.5147C2.79387 14.8539 3.03363 15.1388 3.34619 15.3212C3.65875 15.5035 4.02482 15.572 4.38216 15.515H6.69416C6.73766 15.515 6.77937 15.5323 6.81012 15.563C6.84088 15.5938 6.85816 15.6355 6.85816 15.679V25.62C6.85816 26.2724 7.11734 26.8981 7.57868 27.3595C8.04002 27.8208 8.66573 28.08 9.31816 28.08H20.0122V28.074H28.4572V23.274C28.4572 23.274 28.7262 21.098 27.5572 19.942C26.2691 18.6759 25.1042 17.2903 24.0782 15.804C23.1642 14.42 22.7192 15.938 23.2182 16.744C24.0512 18.02 24.8572 19.202 24.6282 19.283C24.3992 19.364 24.1582 19.498 22.9762 18.369C21.7942 17.24 21.4762 15.548 21.2972 13.654C21.1182 11.76 20.1972 12.054 20.1972 12.054C20.0611 13.6436 20.106 15.2435 20.3312 16.823C20.3952 17.8467 20.7266 18.8357 21.2923 19.6913C21.858 20.5469 22.6383 21.2392 23.5552 21.699C25.4892 22.774 25.3152 25.407 25.3152 25.407V25.771L18.8812 25.777H9.32116C9.27774 25.7767 9.23618 25.7593 9.20548 25.7286C9.17478 25.6979 9.15742 25.6564 9.15716 25.613V15.679C9.15689 15.0266 8.89763 14.4011 8.43635 13.9398C7.97507 13.4785 7.34951 13.2192 6.69716 13.219H6.14616L18.6372 2.37097C18.7072 2.32295 18.7902 2.29724 18.8752 2.29724C18.9601 2.29724 19.0431 2.32295 19.1132 2.37097L25.6952 8.08697C25.9128 8.26826 26.1657 8.40253 26.4377 8.48135C26.7098 8.56018 26.9953 8.58184 27.2762 8.54497H29.4052H31.5342C31.815 8.58184 32.1005 8.56018 32.3726 8.48135C32.6447 8.40253 32.8975 8.26826 33.1152 8.08697L39.6972 2.37097C39.7672 2.32295 39.8502 2.29724 39.9352 2.29724C40.0201 2.29724 40.1031 2.32295 40.1732 2.37097L52.6642 13.218H52.1142C51.4618 13.2182 50.8363 13.4775 50.375 13.9388C49.9137 14.4001 49.6544 15.0256 49.6542 15.678V25.62C49.6539 25.6634 49.6365 25.7049 49.6058 25.7356C49.5751 25.7663 49.5336 25.7837 49.4902 25.784H40.3642V25.778H33.5142V25.414C33.5142 25.414 33.3392 22.781 35.2742 21.706C36.1911 21.2462 36.9713 20.5539 37.537 19.6983C38.1028 18.8427 38.4342 17.8537 38.4982 16.83C38.7233 15.2505 38.7683 13.6506 38.6322 12.061C38.6322 12.061 37.7052 11.761 37.5322 13.661C37.3592 15.561 37.0322 17.248 35.8532 18.376C34.6742 19.504 34.4292 19.37 34.2012 19.29C33.9732 19.21 34.7792 18.027 35.6112 16.751C36.1112 15.945 35.6652 14.427 34.7512 15.811C33.7251 17.2973 32.5602 18.6829 31.2722 19.949C30.1032 21.104 30.3722 23.281 30.3722 23.281V28.081H39.0262V28.087H49.4892C50.1416 28.087 50.7673 27.8278 51.2286 27.3665C51.69 26.9051 51.9492 26.2794 51.9492 25.627V15.679C51.9494 15.6356 51.9668 15.594 51.9975 15.5633C52.0282 15.5326 52.0697 15.5152 52.1132 15.515H54.4252C54.7818 15.5713 55.147 15.5027 55.4589 15.3207C55.7708 15.1386 56.0102 14.8544 56.1365 14.5162C56.2629 14.1779 56.2685 13.8064 56.1523 13.4644C56.0362 13.1225 55.8054 12.8313 55.4992 12.64" fill="white"/>
<path d="M31.0599 19.5119C32.3321 18.26 33.4836 16.891 34.4989 15.4229C35.0609 14.5709 35.5129 14.6789 35.7319 14.8229C35.8153 14.8783 35.8859 14.951 35.9389 15.0359C36.2615 14.3889 36.4325 13.6769 36.4389 12.9539C36.4459 12.4443 36.3507 11.9385 36.1588 11.4663C35.967 10.994 35.6825 10.5651 35.3221 10.2047C34.9617 9.84429 34.5328 9.55978 34.0606 9.36797C33.5884 9.17617 33.0825 9.08095 32.5729 9.08794C31.9703 9.09414 31.3761 9.22914 30.8301 9.48388C30.284 9.73863 29.7987 10.1072 29.4069 10.5649C29.0149 10.1073 28.5297 9.73871 27.9836 9.48397C27.4376 9.22923 26.8434 9.0942 26.2409 9.08794C25.7312 9.08095 25.2254 9.17617 24.7532 9.36797C24.281 9.55978 23.852 9.84429 23.4916 10.2047C23.1312 10.5651 22.8467 10.994 22.6549 11.4663C22.4631 11.9385 22.3679 12.4443 22.3749 12.9539C22.3787 13.683 22.5498 14.4014 22.8749 15.0539C22.9265 14.9578 22.9998 14.875 23.0889 14.8119C23.3079 14.6719 23.7599 14.5639 24.3219 15.4119C25.3375 16.88 26.4892 18.2491 27.7619 19.5009C28.2254 19.9905 28.5361 20.6045 28.6559 21.2679L29.4009 22.0109L30.1659 21.2489C30.2878 20.5929 30.5969 19.9862 31.0559 19.5019" fill="white"/>
</g>
</g>
<defs>
<clipPath id="clip0_826_33">
<rect width="59.421" height="47.587" fill="white"/>
</clipPath>
</defs>
</svg>
