<svg id="Warstwa_1" data-name="Warstwa 1" xmlns="http://www.w3.org/2000/svg" width="71.859" height="45.788" viewBox="0 0 71.859 45.788">
  <path id="Path_18775" data-name="Path 18775" d="M62.489,166.529H63.5l.354-.957h-.86l.234-1.114h1.028l.655-1.777h1.4l-.636,1.777h1.093l.655-1.777h1.4l-.636,1.777H68.9l-.234,1.114H67.8l-.345.957h.7l-.234,1.1h-.86l-.563,1.582H65.034l.574-1.582H64.548l-.553,1.582H62.518l.574-1.582H62.25Zm2.393.042h1.168l.383-1.047H65.249Z" transform="translate(-50.275 -131.53)" fill="#fff"/>
  <path id="Path_18776" data-name="Path 18776" d="M103.6,168.882l-.057.216h-1.767l-.73-2.058h-.9l-.438,2.058H98c.477-2.2.917-4.358,1.394-6.556.973,0,1.915-.01,2.872,0a1.773,1.773,0,0,1,1.861,2.319,2.736,2.736,0,0,1-1.375,1.915Zm-2-3.236a.973.973,0,0,0,.908-.99.553.553,0,0,0-.561-.628h-1.187l-.347,1.618Z" transform="translate(-79.18 -131.415)" fill="#fff"/>
  <path id="Path_18777" data-name="Path 18777" d="M136.2,168.736a2.545,2.545,0,0,1-2.711-2.681,4.106,4.106,0,0,1,4.19-4.115,2.562,2.562,0,0,1,2.7,2.713,3.947,3.947,0,0,1-4.18,4.086m.364-1.618a2.106,2.106,0,0,0,2.078-2.164,1.279,1.279,0,0,0-1.3-1.394,2.15,2.15,0,0,0-2.085,2.16,1.224,1.224,0,0,0,1.308,1.394" transform="translate(-107.874 -130.932)" fill="#fff"/>
  <path id="Path_18778" data-name="Path 18778" d="M178.64,162.713l.394,3.583h.027l.86-1.909.992-1.786h1.8l-.056.253-3.563,6.361h-.908l-.626-2.993h-.029l-1.721,2.993h-.954l-.982-6.361.057-.253h1.794l.236,1.786.092,1.909h.029l1.861-3.583Z" transform="translate(-140.522 -131.466)" fill="#fff"/>
  <path id="Path_18779" data-name="Path 18779" d="M222.68,162.6l-.3,1.4H220l-.214,1.019h2.189l-.318,1.5h-2.189l-.253,1.151h2.461l-.308,1.476H217.19l1.394-6.547Z" transform="translate(-175.547 -131.466)" fill="#fff"/>
  <path id="Path_18780" data-name="Path 18780" d="M251.171,168.882l-.056.216h-1.767l-.73-2.058h-.9l-.44,2.058h-1.71c.477-2.2.915-4.358,1.392-6.556.973,0,1.915-.01,2.872,0a1.774,1.774,0,0,1,1.861,2.319,2.741,2.741,0,0,1-1.375,1.915Zm-2-3.236a.974.974,0,0,0,.908-.99.553.553,0,0,0-.561-.628h-1.183l-.345,1.618Z" transform="translate(-198.493 -131.415)" fill="#fff"/>
  <path id="Path_18781" data-name="Path 18781" d="M284.085,164.771l1.656-2.171h1.813l-.056.253-3.012,3.807-.513,2.487h-1.7l.551-2.589-1.413-3.705.056-.253h1.815l.739,2.171Z" transform="translate(-227.471 -131.466)" fill="#fff"/>
  <path id="Path_18782" data-name="Path 18782" d="M66.507,209.4l-.68,3.246h-1.6l1.3-6.133h.5l2.529,3.071.655-3.045h1.6l-1.3,6.123H69.1Z" transform="translate(-51.876 -166.968)" fill="#fff"/>
  <path id="Path_18783" data-name="Path 18783" d="M97.491,211.668l-.525.829H95.3l.044-.218,4-5.949h.8l1.509,5.949-.042.218H99.959l-.216-.837Zm.785-1.3h1.266l-.324-1.44Z" transform="translate(-76.997 -166.822)" fill="#fff"/>
  <path id="Path_18784" data-name="Path 18784" d="M143.237,210.784l-.419,1.972H141.23l1.3-6.106h3.8l-.3,1.386h-2.215l-.287,1.352h1.953l-.3,1.4Z" transform="translate(-114.132 -167.081)" fill="#fff"/>
  <path id="Path_18785" data-name="Path 18785" d="M170.459,212.352a2.375,2.375,0,0,1-2.529-2.5,3.829,3.829,0,0,1,3.908-3.839,2.39,2.39,0,0,1,2.522,2.529,3.683,3.683,0,0,1-3.9,3.812m.341-1.509a1.968,1.968,0,0,0,1.93-2.016,1.191,1.191,0,0,0-1.212-1.3,2,2,0,0,0-1.945,2.014,1.143,1.143,0,0,0,1.222,1.3" transform="translate(-135.72 -166.564)" fill="#fff"/>
  <path id="Path_18786" data-name="Path 18786" d="M208.645,212.474l-.052.191h-1.651l-.68-1.915h-.837l-.412,1.915h-1.6c.444-2.051.854-4.065,1.3-6.116H207.4a1.653,1.653,0,0,1,1.737,2.164,2.53,2.53,0,0,1-1.283,1.781Zm-1.859-3.018a.909.909,0,0,0,.846-.925.517.517,0,0,0-.525-.586H206l-.324,1.511Z" transform="translate(-164.414 -167)" fill="#fff"/>
  <path id="Path_18787" data-name="Path 18787" d="M236.955,210.73l.871-4.09h1.584l-.864,4.056c-.113.507.3.724.751.724a.988.988,0,0,0,1.038-.724l.864-4.056h1.587l-.875,4.09A2.861,2.861,0,0,1,239,212.825c-1.291,0-2.348-.724-2.041-2.095" transform="translate(-191.484 -167.073)" fill="#fff"/>
  <path id="Path_18788" data-name="Path 18788" d="M274.5,206.55h.567l-1.3,6.125h-1.6l.6-2.819-1.6,1.361h-.184l-.977-1.474-.628,2.932h-1.6l1.3-6.125h.567l1.867,2.644Z" transform="translate(-216.459 -167)" fill="#fff"/>
  <path id="Path_18789" data-name="Path 18789" d="M4.516,84.388a.957.957,0,0,1-.689-.291A14.334,14.334,0,1,1,24.262,63.991a14.256,14.256,0,0,1,4.225,10.135.957.957,0,1,1-1.915,0A12.446,12.446,0,1,0,5.2,82.764a.957.957,0,0,1-.687,1.624" transform="translate(0.29 -48.277)" fill="#fff"/>
  <path id="Path_18790" data-name="Path 18790" d="M139.113,61.691,125.729,51.336a1.1,1.1,0,1,0-1.34,1.742l13.384,10.355a1.1,1.1,0,0,0,1.34-1.742" transform="translate(-100.126 -41.289)" fill="#fff"/>
  <path id="Path_18791" data-name="Path 18791" d="M168.2,55.236l-9.915-7.673a1.1,1.1,0,0,0-1.34,1.742l9.915,7.673a1.1,1.1,0,0,0,1.34-1.742" transform="translate(-126.529 -38.301)" fill="#fff"/>
  <path id="Path_18792" data-name="Path 18792" d="M197.089,49.854a1.1,1.1,0,0,0-.191-1.545l-6.464-5a1.1,1.1,0,0,0-1.34,1.742l6.459,5a1.1,1.1,0,0,0,1.545-.191" transform="translate(-152.523 -34.865)" fill="#fff"/>
  <path id="Path_18793" data-name="Path 18793" d="M223.919,42.889a1.07,1.07,0,0,0,1.5-.191,1.134,1.134,0,0,0-.2-1.589l-2.949-2.277a1.1,1.1,0,1,0-1.34,1.741Z" transform="translate(-178.173 -31.172)" fill="#fff"/>
  <path id="Path_18794" data-name="Path 18794" d="M243.836,15.713a14.269,14.269,0,0,0-14.156-3.65L225.175,0h-6.217a.957.957,0,0,0,0,1.915h4.888l4.044,10.815a14.52,14.52,0,0,0-4.326,2.983A14.261,14.261,0,0,0,219.34,25.85a.957.957,0,0,0,1.915,0,12.46,12.46,0,0,1,7.3-11.33l4.435,11.856a.957.957,0,0,0,.9.622.94.94,0,0,0,.335-.061.957.957,0,0,0,.561-1.231L230.36,13.863a12.421,12.421,0,0,1,12.264,20.624A.957.957,0,1,0,244,35.82a14.267,14.267,0,0,0-.163-20.105" transform="translate(-176.202)" fill="#fff"/>
</svg>
