<svg viewBox="0 0 185 62" fill="none" xmlns="http://www.w3.org/2000/svg">
<g clip-path="url(#clip0_803_525)">
<path d="M53.909 60.79C53.6974 61.0058 53.4448 61.1773 53.1661 61.2943C52.8875 61.4113 52.5882 61.4716 52.286 61.4716C51.9837 61.4716 51.6845 61.4113 51.4058 61.2943C51.1271 61.1773 50.8746 61.0058 50.663 60.79L24.699 34.955L27.945 31.839L54.039 57.674C54.4281 58.1077 54.6324 58.6763 54.6081 59.2584C54.5838 59.8406 54.3329 60.3902 53.909 60.79Z" fill="white"/>
<path d="M41.187 60.79C40.9754 61.0058 40.7228 61.1773 40.4442 61.2943C40.1655 61.4113 39.8663 61.4716 39.564 61.4716C39.2617 61.4716 38.9625 61.4113 38.6838 61.2943C38.4052 61.1773 38.1526 61.0058 37.941 60.79L18.341 41.19L21.584 38.071L41.317 57.671C41.7062 58.1047 41.9104 58.6733 41.8861 59.2554C41.8618 59.8376 41.6109 60.3872 41.187 60.787" fill="white"/>
<path d="M28.463 60.919C28.2514 61.1348 27.9989 61.3063 27.7202 61.4233C27.4415 61.5404 27.1423 61.6007 26.84 61.6007C26.5377 61.6007 26.2385 61.5404 25.9598 61.4233C25.6812 61.3063 25.4286 61.1348 25.217 60.919L11.846 47.548L15.092 44.432L28.463 57.674C28.6788 57.8856 28.8503 58.1382 28.9673 58.4168C29.0844 58.6955 29.1447 58.9947 29.1447 59.297C29.1447 59.5993 29.0844 59.8985 28.9673 60.1772C28.8503 60.4559 28.6788 60.7074 28.463 60.919Z" fill="white"/>
<path d="M15.741 60.919C15.5294 61.1348 15.2768 61.3063 14.9981 61.4233C14.7195 61.5404 14.4202 61.6006 14.118 61.6006C13.8157 61.6006 13.5165 61.5404 13.2378 61.4233C12.9591 61.3063 12.7066 61.1348 12.495 60.919L7.04298 55.593C6.82715 55.3814 6.6557 55.1288 6.53866 54.8502C6.42161 54.5715 6.36133 54.2723 6.36133 53.97C6.36133 53.6677 6.42161 53.3685 6.53866 53.0898C6.6557 52.8112 6.82715 52.5586 7.04298 52.347L8.59998 50.793L15.61 57.803C15.8467 57.9835 16.0408 58.2139 16.1785 58.4779C16.3161 58.7419 16.3939 59.033 16.4063 59.3305C16.4187 59.628 16.3654 59.9245 16.2503 60.199C16.1351 60.4736 15.9619 60.7194 15.741 60.919Z" fill="white"/>
<path d="M2.36901 12.755L0.681013 11.197C0.466021 10.9984 0.294459 10.7575 0.17712 10.4893C0.0597816 10.2212 -0.000793457 9.9317 -0.000793457 9.63901C-0.000793457 9.34633 0.0597816 9.05682 0.17712 8.78869C0.294459 8.52056 0.466021 8.27961 0.681013 8.08101L8.08101 0.811012C8.29263 0.595187 8.54517 0.423736 8.82385 0.306692C9.10253 0.189649 9.40175 0.129364 9.70401 0.129364C10.0063 0.129364 10.3055 0.189649 10.5842 0.306692C10.8629 0.423736 11.1154 0.595187 11.327 0.811012C11.542 1.00961 11.7136 1.25055 11.8309 1.51868C11.9482 1.78682 12.0088 2.07633 12.0088 2.36901C12.0088 2.66169 11.9482 2.95121 11.8309 3.21934C11.7136 3.48747 11.542 3.72841 11.327 3.92701L2.36901 12.755Z" fill="white"/>
<path d="M2.369 25.348L0.811005 23.79C0.595879 23.5915 0.424195 23.3506 0.30677 23.0824C0.189345 22.8143 0.128723 22.5247 0.128723 22.232C0.128723 21.9393 0.189345 21.6497 0.30677 21.3816C0.424195 21.1135 0.595879 20.8725 0.811005 20.674L20.934 0.682014C21.1456 0.46619 21.3982 0.29474 21.6768 0.177696C21.9555 0.0606526 22.2547 0.000366211 22.557 0.000366211C22.8593 0.000366211 23.1585 0.0606526 23.4372 0.177696C23.7159 0.29474 23.9684 0.46619 24.18 0.682014C24.3951 0.880532 24.5668 1.12145 24.6842 1.38959C24.8017 1.65773 24.8623 1.94729 24.8623 2.24002C24.8623 2.53274 24.8017 2.8223 24.6842 3.09044C24.5668 3.35858 24.3951 3.5995 24.18 3.79802L2.369 25.348Z" fill="white"/>
<path d="M2.369 37.941L0.811005 36.383C0.595879 36.1845 0.424195 35.9436 0.30677 35.6754C0.189345 35.4073 0.128723 35.1177 0.128723 34.825C0.128723 34.5323 0.189345 34.2427 0.30677 33.9746C0.424195 33.7065 0.595879 33.4655 0.811005 33.267L33.655 0.682014C33.8666 0.46619 34.1192 0.29474 34.3978 0.177696C34.6765 0.0606526 34.9757 0.000366211 35.278 0.000366211C35.5803 0.000366211 35.8795 0.0606526 36.1582 0.177696C36.4369 0.29474 36.6894 0.46619 36.901 0.682014C37.1161 0.880532 37.2878 1.12145 37.4052 1.38959C37.5227 1.65773 37.5833 1.94729 37.5833 2.24002C37.5833 2.53274 37.5227 2.8223 37.4052 3.09044C37.2878 3.35858 37.1161 3.5995 36.901 3.79802L2.369 37.941Z" fill="white"/>
<path d="M49.625 0.682014C49.4134 0.46619 49.1608 0.29474 48.8821 0.177696C48.6035 0.0606526 48.3042 0.000366211 48.002 0.000366211C47.6997 0.000366211 47.4005 0.0606526 47.1218 0.177696C46.8431 0.29474 46.5906 0.46619 46.379 0.682014L0.678986 45.99C0.463859 46.1885 0.292176 46.4295 0.174751 46.6976C0.0573264 46.9657 -0.0032959 47.2553 -0.0032959 47.548C-0.0032959 47.8407 0.0573264 48.1303 0.174751 48.3984C0.292176 48.6666 0.463859 48.9075 0.678986 49.106L2.23699 50.664L3.53699 51.964C3.22779 51.5369 3.08377 51.0123 3.13157 50.4873C3.17938 49.9622 3.41576 49.4722 3.79698 49.108L6.52498 46.379L49.625 3.79702C50.002 3.36553 50.2097 2.81199 50.2097 2.23902C50.2097 1.66604 50.002 1.1135 49.625 0.682014Z" fill="white"/>
<path d="M172.308 52.221V41.576C172.308 41.3694 172.226 41.1713 172.08 41.0252C171.934 40.8791 171.736 40.797 171.529 40.797C171.322 40.797 171.124 40.8791 170.978 41.0252C170.832 41.1713 170.75 41.3694 170.75 41.576V49.885L163.74 41.057C163.679 40.9379 163.586 40.8382 163.471 40.7695C163.357 40.7007 163.225 40.6655 163.091 40.668C162.572 40.668 162.182 40.928 162.182 41.447V52.091C162.182 52.2976 162.264 52.4957 162.41 52.6418C162.556 52.7879 162.754 52.87 162.961 52.87C163.168 52.87 163.366 52.7879 163.512 52.6418C163.658 52.4957 163.74 52.2976 163.74 52.091V43.783L170.75 52.611C170.88 52.871 171.14 52.871 171.399 52.871C172.048 53.001 172.308 52.611 172.308 52.222M157.898 52.092V41.576C157.902 41.4542 157.882 41.3327 157.838 41.219C157.794 41.1052 157.728 41.0015 157.643 40.9138C157.558 40.8262 157.457 40.7565 157.344 40.709C157.232 40.6614 157.111 40.6369 156.99 40.6369C156.868 40.6369 156.747 40.6614 156.635 40.709C156.522 40.7565 156.421 40.8262 156.336 40.9138C156.251 41.0015 156.185 41.1052 156.141 41.219C156.097 41.3327 156.077 41.4542 156.081 41.576V52.091C156.077 52.2128 156.097 52.3343 156.141 52.448C156.185 52.5618 156.251 52.6655 156.336 52.7532C156.421 52.8408 156.522 52.9105 156.635 52.958C156.747 53.0056 156.868 53.0301 156.99 53.0301C157.111 53.0301 157.232 53.0056 157.344 52.958C157.457 52.9105 157.558 52.8408 157.643 52.7532C157.728 52.6655 157.794 52.5618 157.838 52.448C157.882 52.3343 157.902 52.2138 157.898 52.092ZM145.565 52.87H152.186C152.393 52.87 152.591 52.7879 152.737 52.6418C152.883 52.4957 152.965 52.2976 152.965 52.091C152.965 51.8844 152.883 51.6863 152.737 51.5402C152.591 51.3941 152.393 51.312 152.186 51.312H146.344V41.576C146.344 41.3349 146.248 41.1037 146.078 40.9332C145.907 40.7628 145.676 40.667 145.435 40.667C145.194 40.667 144.963 40.7628 144.792 40.9332C144.622 41.1037 144.526 41.3349 144.526 41.576V51.961C144.786 52.48 145.045 52.87 145.565 52.87ZM138.165 48.326H133.751L135.958 43.263L138.165 48.326ZM136.737 41.186C136.673 41.0322 136.565 40.9009 136.426 40.8085C136.287 40.7161 136.125 40.6668 135.958 40.6668C135.791 40.6668 135.629 40.7161 135.49 40.8085C135.351 40.9009 135.243 41.0322 135.179 41.186L130.379 51.831C130.379 51.961 130.249 52.091 130.249 52.22C130.245 52.3235 130.262 52.4267 130.299 52.5232C130.337 52.6197 130.394 52.7074 130.467 52.7806C130.541 52.8538 130.628 52.911 130.725 52.9486C130.821 52.9862 130.925 53.0034 131.028 52.999C131.194 52.9949 131.355 52.944 131.493 52.8521C131.63 52.7603 131.739 52.6312 131.807 52.48L132.975 49.88H138.687L139.855 52.48C139.923 52.6312 140.032 52.7603 140.169 52.8521C140.307 52.944 140.468 52.9949 140.634 52.999C140.737 53.0034 140.841 52.9862 140.937 52.9486C141.034 52.911 141.121 52.8538 141.195 52.7806C141.268 52.7074 141.325 52.6197 141.363 52.5232C141.4 52.4267 141.417 52.3235 141.413 52.22C141.422 52.1496 141.414 52.0781 141.392 52.0108C141.369 51.9435 141.332 51.8821 141.283 51.831L136.737 41.186ZM127.52 52.091C127.524 51.9875 127.507 51.8843 127.47 51.7878C127.432 51.6913 127.375 51.6036 127.302 51.5304C127.228 51.4572 127.141 51.4 127.044 51.3624C126.948 51.3248 126.844 51.3076 126.741 51.312H120.51L127.261 42.095C127.398 41.9521 127.489 41.7712 127.521 41.576C127.525 41.4725 127.508 41.3693 127.471 41.2728C127.433 41.1763 127.376 41.0886 127.303 41.0154C127.229 40.9422 127.142 40.885 127.045 40.8474C126.949 40.8098 126.845 40.7926 126.742 40.797H119.082C118.976 40.7818 118.868 40.7914 118.767 40.8252C118.665 40.8589 118.573 40.9159 118.497 40.9915C118.422 41.0671 118.365 41.1593 118.331 41.2608C118.297 41.3622 118.288 41.4702 118.303 41.576C118.299 41.6795 118.316 41.7827 118.353 41.8792C118.391 41.9757 118.448 42.0634 118.521 42.1366C118.595 42.2098 118.682 42.267 118.779 42.3046C118.875 42.3422 118.979 42.3594 119.082 42.355H125.054L118.303 51.572C118.224 51.6337 118.159 51.7123 118.114 51.8021C118.069 51.8919 118.045 51.9906 118.043 52.091C118.028 52.1968 118.037 52.3048 118.071 52.4062C118.105 52.5077 118.162 52.5999 118.238 52.6755C118.313 52.7511 118.405 52.8081 118.507 52.8418C118.608 52.8756 118.716 52.8852 118.822 52.87H126.611C126.834 52.8817 127.052 52.8073 127.221 52.6623C127.391 52.5173 127.497 52.3127 127.52 52.091ZM115.445 49.625C115.445 47.548 113.757 46.769 110.901 45.86C108.824 45.211 107.915 44.821 107.915 43.783C107.915 42.615 109.083 42.095 110.901 42.095C112.002 42.1183 113.076 42.4319 114.017 43.004C114.147 43.004 114.277 43.134 114.406 43.134C114.509 43.1384 114.613 43.1212 114.709 43.0836C114.806 43.046 114.893 42.9888 114.967 42.9156C115.04 42.8424 115.097 42.7547 115.135 42.6582C115.172 42.5617 115.189 42.4585 115.185 42.355C115.185 41.836 114.276 41.316 113.757 41.187C112.894 40.8279 111.966 40.6512 111.031 40.668C108.305 40.668 106.357 41.707 106.357 43.914C106.357 45.602 107.396 46.64 110.641 47.549C112.848 48.198 113.887 48.588 113.887 49.756C113.887 50.795 112.978 51.573 111.031 51.573C109.804 51.5883 108.611 51.1752 107.656 50.405C107.396 50.275 107.267 50.145 107.007 50.145C106.818 50.1304 106.631 50.1901 106.486 50.3113C106.34 50.4325 106.248 50.6057 106.228 50.794C106.25 50.9548 106.308 51.1085 106.398 51.2434C106.487 51.3784 106.607 51.4911 106.747 51.573C108.012 52.4262 109.505 52.8791 111.031 52.873C113.757 53.003 115.445 51.573 115.445 49.627M101.424 46.771C101.375 47.6332 101.074 48.462 100.559 49.1552C100.043 49.8483 99.3366 50.3754 98.5252 50.6713C97.7139 50.9673 96.8337 51.0191 95.9933 50.8204C95.1528 50.6218 94.389 50.1813 93.796 49.5534C93.2031 48.9256 92.807 48.1378 92.6567 47.2873C92.5064 46.4369 92.6085 45.5611 92.9503 44.768C93.2922 43.975 93.8588 43.2994 94.5803 42.8247C95.3017 42.35 96.1464 42.097 97.01 42.097C97.6145 42.0879 98.2143 42.2047 98.7712 42.4398C99.3282 42.675 99.8302 43.0234 100.245 43.4629C100.66 43.9025 100.979 44.4236 101.182 44.993C101.385 45.5625 101.468 46.168 101.424 46.771ZM103.112 46.771C103.112 45.5383 102.747 44.3333 102.062 43.3083C101.377 42.2833 100.404 41.4844 99.2654 41.0126C98.1266 40.5408 96.8734 40.4173 95.6645 40.6577C94.4555 40.8981 93.3449 41.4917 92.4733 42.3633C91.6017 43.2349 91.0081 44.3455 90.7677 45.5544C90.5273 46.7634 90.6508 48.0166 91.1226 49.1553C91.5944 50.2941 92.3933 51.2674 93.4183 51.9521C94.4433 52.6368 95.6483 53.0022 96.881 53.002C97.708 53.0345 98.5327 52.8956 99.3034 52.5939C100.074 52.2923 100.774 51.8345 101.359 51.2493C101.944 50.6641 102.402 49.9641 102.704 49.1934C103.006 48.4227 103.145 47.598 103.112 46.771ZM80.653 52.091V49.105L83.253 46.638L87.018 52.61C87.095 52.7445 87.21 52.8532 87.3486 52.9224C87.4873 52.9916 87.6433 53.0183 87.797 52.999C87.9005 53.0034 88.0037 52.9862 88.1002 52.9486C88.1967 52.911 88.2844 52.8538 88.3576 52.7806C88.4308 52.7074 88.488 52.6197 88.5256 52.5232C88.5632 52.4267 88.5804 52.3235 88.576 52.22C88.5951 52.0371 88.5491 51.8533 88.446 51.701L84.422 45.469L87.927 42.094C88.0896 41.9164 88.1821 41.6857 88.187 41.445C88.1645 41.2233 88.0575 41.0187 87.8883 40.8737C87.7191 40.7287 87.5006 40.6543 87.278 40.666C87.018 40.666 86.889 40.666 86.759 40.926L80.659 46.898V41.576C80.659 41.3349 80.5632 41.1037 80.3928 40.9332C80.2223 40.7628 79.9911 40.667 79.75 40.667C79.5089 40.667 79.2777 40.7628 79.1072 40.9332C78.9368 41.1037 78.841 41.3349 78.841 41.576V52.091C78.841 52.3321 78.9368 52.5633 79.1072 52.7338C79.2777 52.9042 79.5089 53 79.75 53C79.9911 53 80.2223 52.9042 80.3928 52.7338C80.5632 52.5633 80.659 52.3321 80.659 52.091" fill="white"/>
<path d="M172.957 30.152L164.648 13.275C164.534 12.994 164.335 12.7555 164.079 12.5926C163.823 12.4297 163.523 12.3505 163.22 12.366C163.028 12.3459 162.833 12.369 162.651 12.4337C162.468 12.4983 162.303 12.6029 162.166 12.7397C162.029 12.8766 161.924 13.0422 161.86 13.2246C161.795 13.407 161.772 13.6015 161.792 13.794V33.008C161.783 33.198 161.813 33.3879 161.881 33.5655C161.95 33.743 162.055 33.9042 162.189 34.0388C162.324 34.1733 162.485 34.2781 162.663 34.3466C162.84 34.415 163.03 34.4454 163.22 34.436C163.417 34.4474 163.614 34.4193 163.799 34.3532C163.985 34.2872 164.156 34.1845 164.301 34.0514C164.446 33.9182 164.563 33.7573 164.645 33.578C164.727 33.3988 164.772 33.205 164.778 33.008V19.896L171.529 33.657C171.656 33.9287 171.858 34.1586 172.111 34.3196C172.364 34.4807 172.657 34.5662 172.957 34.5662C173.257 34.5662 173.551 34.4807 173.803 34.3196C174.056 34.1586 174.258 33.9287 174.385 33.657L181.136 19.896V33.008C181.131 33.2083 181.168 33.4073 181.247 33.5918C181.325 33.7762 181.442 33.9417 181.59 34.0771C181.737 34.2124 181.912 34.3145 182.103 34.3764C182.293 34.4384 182.495 34.4587 182.694 34.436C182.884 34.4454 183.074 34.415 183.251 34.3466C183.429 34.2781 183.59 34.1733 183.725 34.0388C183.859 33.9042 183.964 33.743 184.033 33.5655C184.101 33.3879 184.131 33.198 184.122 33.008V13.794C184.131 13.604 184.101 13.4141 184.033 13.2365C183.964 13.059 183.859 12.8978 183.725 12.7632C183.59 12.6287 183.429 12.5238 183.251 12.4554C183.074 12.387 182.884 12.3565 182.694 12.366C182.391 12.3505 182.091 12.4297 181.835 12.5926C181.579 12.7555 181.38 12.994 181.266 13.275L172.957 30.152ZM145.694 34.566C151.406 34.566 154.911 31.061 154.911 25.608V13.924C154.911 13.5108 154.747 13.1145 154.455 12.8223C154.162 12.5301 153.766 12.366 153.353 12.366C152.94 12.366 152.544 12.5301 152.251 12.8223C151.959 13.1145 151.795 13.5108 151.795 13.924V25.867C151.795 29.372 149.718 31.709 145.695 31.709C141.672 31.709 139.595 29.372 139.595 25.867V13.924C139.603 13.7172 139.568 13.511 139.493 13.3182C139.418 13.1255 139.303 12.9505 139.157 12.8042C139.011 12.6578 138.835 12.5434 138.643 12.468C138.45 12.3925 138.244 12.3578 138.037 12.366C137.828 12.3466 137.616 12.3736 137.419 12.445C137.221 12.5164 137.041 12.6306 136.892 12.7793C136.744 12.928 136.629 13.1077 136.558 13.3056C136.487 13.5034 136.46 13.7145 136.479 13.924V25.608C136.479 31.061 139.854 34.566 145.696 34.566M123.756 15.482C124.234 15.4331 124.717 15.4891 125.172 15.6461C125.626 15.8031 126.041 16.0573 126.387 16.391C126.733 16.7247 127.002 17.1298 127.175 17.5782C127.349 18.0265 127.422 18.5073 127.391 18.987C127.411 19.4638 127.33 19.9396 127.153 20.3827C126.975 20.8258 126.706 21.2262 126.362 21.5575C126.019 21.8888 125.609 22.1434 125.159 22.3045C124.71 22.4656 124.232 22.5295 123.756 22.492H115.837V15.482H123.756ZM115.837 32.882V25.222H122.718L126.872 33.66C126.986 33.941 127.185 34.1795 127.441 34.3424C127.697 34.5053 127.997 34.5845 128.3 34.569C128.507 34.5772 128.713 34.5424 128.906 34.467C129.098 34.3916 129.274 34.2772 129.42 34.1308C129.566 33.9845 129.681 33.8095 129.756 33.6167C129.831 33.424 129.866 33.2178 129.858 33.011C129.858 32.751 129.728 32.622 129.728 32.362L126.093 24.962C127.421 24.6871 128.608 23.9482 129.441 22.8776C130.273 21.8071 130.697 20.4749 130.637 19.12C130.637 15.355 128.17 12.759 123.237 12.759H114.409C114.2 12.7396 113.988 12.7666 113.791 12.838C113.593 12.9094 113.413 13.0236 113.264 13.1723C113.116 13.321 113.001 13.5007 112.93 13.6986C112.859 13.8964 112.832 14.1075 112.851 14.317V33.008C112.843 33.2148 112.878 33.421 112.953 33.6137C113.028 33.8065 113.143 33.9815 113.289 34.1278C113.436 34.2742 113.611 34.3886 113.803 34.464C113.996 34.5394 114.202 34.5742 114.409 34.566C114.81 34.5033 115.175 34.2981 115.438 33.9881C115.7 33.6781 115.842 33.284 115.837 32.878M103.637 23.401C103.637 27.815 100.781 31.71 95.718 31.71C90.655 31.71 87.799 27.815 87.799 23.401C87.799 18.987 90.655 15.092 95.718 15.092C100.781 15.092 103.637 18.987 103.637 23.401ZM106.883 23.401C106.903 21.9394 106.632 20.4884 106.086 19.1323C105.54 17.7762 104.731 16.5421 103.704 15.5015C102.677 14.4609 101.454 13.6347 100.106 13.0708C98.757 12.5068 97.3098 12.2164 95.848 12.2164C94.3862 12.2164 92.939 12.5068 91.5904 13.0708C90.2418 13.6347 89.0187 14.4609 87.992 15.5015C86.9654 16.5421 86.1557 17.7762 85.61 19.1323C85.0642 20.4884 84.7933 21.9394 84.813 23.401C84.7933 24.8626 85.0642 26.3136 85.61 27.6697C86.1557 29.0258 86.9654 30.2599 87.992 31.3005C89.0187 32.341 90.2418 33.1673 91.5904 33.7312C92.939 34.2952 94.3862 34.5856 95.848 34.5856C97.3098 34.5856 98.757 34.2952 100.106 33.7312C101.454 33.1673 102.677 32.341 103.704 31.3005C104.731 30.2599 105.54 29.0258 106.086 27.6697C106.632 26.3136 106.903 24.8626 106.883 23.401ZM82.47 14.054C82.4795 13.864 82.449 13.6741 82.3806 13.4965C82.3122 13.319 82.2073 13.1578 82.0728 13.0232C81.9382 12.8887 81.777 12.7838 81.5995 12.7154C81.4219 12.647 81.232 12.6165 81.042 12.626H68.842C68.6351 12.6174 68.4286 12.6518 68.2356 12.7269C68.0426 12.8021 67.8672 12.9164 67.7206 13.0627C67.5739 13.209 67.4592 13.384 67.3835 13.5768C67.3079 13.7696 67.273 13.976 67.281 14.183V32.878C67.281 33.2912 67.4452 33.6875 67.7373 33.9797C68.0295 34.2718 68.4258 34.436 68.839 34.436C69.2522 34.436 69.6485 34.2718 69.9407 33.9797C70.2329 33.6875 70.397 33.2912 70.397 32.878V24.569H76.369C76.7477 24.569 77.111 24.4185 77.3788 24.1507C77.6466 23.8829 77.797 23.5197 77.797 23.141C77.797 22.7623 77.6466 22.399 77.3788 22.1312C77.111 21.8634 76.7477 21.713 76.369 21.713H70.397V15.613H81.042C81.4139 15.537 81.7523 15.3455 82.0087 15.0656C82.2652 14.7858 82.4267 14.4311 82.47 14.054Z" fill="white"/>
</g>
<defs>
<clipPath id="clip0_803_525">
<rect width="184.122" height="61.601" fill="white"/>
</clipPath>
</defs>
</svg>
