<svg width="17" height="17" viewBox="0 0 17 17" xmlns="http://www.w3.org/2000/svg">
<g clip-path="url(#clip0_803_509)">
<path d="M10.5434 14.2444C10.0324 14.7225 9.38888 15.0351 8.69714 15.1411C8.00541 15.2471 7.29779 15.1416 6.66706 14.8384C6.01213 14.5396 5.45466 14.0623 5.05859 13.4612C4.66252 12.8601 4.44388 12.1595 4.42775 11.4398L4.33659 4.14414L5.1761 4.18244L5.2594 11.4829C5.27604 12.2187 5.56934 12.9212 6.08083 13.4503C6.59233 13.9795 7.28445 14.2964 8.01924 14.338C8.37112 14.3585 8.7234 14.3057 9.05387 14.1831C9.38433 14.0605 9.68579 13.8708 9.93921 13.6258C10.1926 13.3808 10.3925 13.086 10.5263 12.7599C10.66 12.4338 10.7247 12.0835 10.7162 11.7311L10.6259 4.01186C10.6145 3.50246 10.4115 3.01608 10.0574 2.64973C9.70325 2.28338 9.22404 2.06399 8.71532 2.03532C8.47133 2.02079 8.22697 2.05708 7.99774 2.14192C7.76851 2.22675 7.5594 2.35828 7.38366 2.52815C7.20791 2.69803 7.06937 2.90256 6.9768 3.12878C6.88424 3.355 6.83967 3.59798 6.84592 3.84232L6.93625 11.5616C6.94262 11.8445 7.05539 12.1147 7.25209 12.3182C7.44878 12.5216 7.71495 12.6435 7.99752 12.6595C8.13288 12.6673 8.26841 12.647 8.39553 12.5999C8.52266 12.5527 8.63863 12.4797 8.73612 12.3855C8.83361 12.2912 8.91051 12.1778 8.96196 12.0524C9.01341 11.9269 9.03829 11.7922 9.03504 11.6566L8.96232 4.9829L9.80182 5.02119L9.87883 11.6921C9.88509 11.9365 9.84052 12.1795 9.74795 12.4057C9.65539 12.6319 9.51684 12.8364 9.3411 13.0063C9.16536 13.1762 8.95624 13.3077 8.72701 13.3925C8.49778 13.4774 8.25343 13.5137 8.00943 13.4991C7.50072 13.4705 7.02151 13.2511 6.66738 12.8847C6.31326 12.5184 6.11026 12.032 6.09888 11.5226L6.01073 3.79986C6.00226 3.4475 6.06694 3.0972 6.20067 2.77109C6.33441 2.44498 6.5343 2.15013 6.78772 1.90517C7.04115 1.6602 7.34261 1.47043 7.67307 1.34784C8.00353 1.22525 8.35582 1.1725 8.7077 1.19292C9.44248 1.23452 10.1346 1.55149 10.6461 2.08065C11.1576 2.60981 11.4509 3.31229 11.4675 4.04806L11.5579 11.7673C11.568 12.2277 11.4832 12.6853 11.3086 13.1115C11.1341 13.5377 10.8736 13.9233 10.5434 14.2444Z"/>
</g>
<defs>
<clipPath id="clip0_803_509">
<rect width="16.673" height="16.663" fill="white"/>
</clipPath>
</defs>
</svg>
