<?xml version="1.0" standalone="no"?>
<!DOCTYPE svg PUBLIC "-//W3C//DTD SVG 20010904//EN"
 "http://www.w3.org/TR/2001/REC-SVG-20010904/DTD/svg10.dtd">
<svg version="1.0" xmlns="http://www.w3.org/2000/svg"
 width="2034.000000pt" height="496.000000pt" viewBox="0 0 2034.000000 496.000000"
 preserveAspectRatio="xMidYMid meet">

<g transform="translate(0.000000,496.000000) scale(0.100000,-0.100000)"
fill="#000000" stroke="none">
<path d="M1725 3699 c-375 -47 -768 -328 -949 -678 -63 -121 -58 -106 -216
-676 -292 -1052 -409 -1482 -419 -1539 -51 -281 59 -560 275 -696 78 -49 136
-73 234 -94 68 -15 230 -16 1845 -14 l1770 3 95 28 c242 71 490 231 645 417
82 98 164 229 199 315 15 37 99 328 187 648 447 1622 412 1503 484 1633 182
325 539 582 900 647 71 13 -215 15 -2450 15 -1392 0 -2561 -4 -2600 -9z m1862
-815 l62 -7 242 -726 242 -726 25 75 c92 280 464 1366 470 1372 4 4 78 13 164
19 123 10 191 10 320 0 89 -6 166 -15 169 -19 4 -4 -89 -252 -206 -552 -116
-300 -302 -779 -413 -1065 -111 -285 -206 -522 -210 -526 -10 -10 -223 -29
-323 -29 -46 0 -141 5 -211 11 l-126 12 -171 441 c-93 243 -280 725 -414 1071
-134 347 -241 633 -238 637 20 23 435 31 618 12z m-706 -71 c16 -86 16 -236 0
-330 l-13 -73 -301 -2 -302 -3 -3 -837 -2 -838 -23 -5 c-48 -10 -220 -25 -297
-25 -77 0 -249 15 -297 25 l-23 5 0 840 0 840 -304 0 -304 0 -13 68 c-17 86
-17 237 0 330 l13 72 928 0 928 0 13 -67z"/>
<path d="M7175 3699 c-394 -49 -797 -352 -975 -731 -30 -64 -103 -316 -304
-1044 -145 -527 -275 -997 -287 -1044 -29 -112 -32 -304 -6 -399 68 -249 255
-417 517 -467 64 -12 902 -14 5895 -12 l5820 3 95 26 c391 109 735 410 870
760 16 43 177 620 355 1281 179 662 335 1228 346 1258 59 159 164 297 268 350
l56 29 -6290 -1 c-3525 0 -6321 -4 -6360 -9z m797 -737 c113 -56 136 -88 476
-685 171 -298 341 -602 380 -675 l70 -134 65 126 c36 70 206 374 378 678 344
603 367 636 485 694 55 27 67 29 179 29 116 0 123 -1 187 -33 80 -39 135 -92
175 -169 21 -39 124 -380 309 -1015 153 -527 280 -958 283 -958 4 0 319 438
701 972 382 534 717 996 745 1026 71 78 172 146 249 167 84 23 268 17 336 -10
64 -26 163 -98 210 -153 22 -26 354 -497 738 -1047 384 -550 703 -1000 709
-1000 6 0 200 172 430 381 516 471 641 582 720 642 34 26 61 50 60 53 -1 3
-31 30 -67 59 -103 85 -831 752 -1115 1022 l-40 38 489 0 489 0 41 -37 c22
-20 167 -159 321 -308 154 -149 300 -290 325 -313 l45 -41 100 97 c187 181
550 528 591 565 l41 37 452 0 c278 0 451 -4 451 -10 0 -5 -6 -13 -14 -17 -8
-4 -56 -47 -107 -94 -430 -395 -909 -822 -1031 -919 -32 -25 -57 -47 -57 -50
0 -3 23 -23 51 -45 77 -59 1218 -1110 1218 -1121 0 -2 -224 -4 -497 -4 l-498
1 -385 369 c-212 203 -387 370 -390 370 -3 0 -183 -167 -400 -370 l-395 -369
-1723 0 c-1000 -1 -1722 3 -1720 8 2 5 98 138 213 295 l210 287 482 -3 c425
-3 480 -1 472 12 -5 8 -48 69 -94 135 -47 66 -183 262 -303 437 -119 174 -220
314 -223 312 -4 -2 -245 -337 -535 -744 l-529 -740 -724 2 -724 3 -128 470
c-111 402 -210 781 -234 890 -6 26 -24 -4 -164 -280 -167 -330 -465 -883 -511
-951 -39 -56 -104 -112 -159 -138 -40 -18 -64 -21 -196 -21 -144 0 -152 1
-207 28 -92 45 -148 117 -272 349 -294 548 -481 900 -513 968 -26 54 -37 69
-40 55 -29 -137 -258 -1005 -349 -1323 l-15 -52 -344 0 c-272 0 -345 3 -345
13 0 7 24 93 54 192 30 99 163 547 296 995 133 448 253 838 266 865 45 97 124
168 227 206 42 15 73 19 157 17 96 -3 112 -6 172 -36z"/>
<path d="M19998 3696 c-107 -38 -200 -140 -274 -302 -24 -50 -139 -459 -368
-1306 -184 -678 -344 -1258 -356 -1288 -83 -211 -242 -413 -440 -560 -144
-107 -356 -199 -529 -230 -30 -6 17 -8 134 -6 159 3 191 7 275 30 402 113 759
449 879 827 11 35 160 582 331 1214 171 633 320 1179 332 1215 58 181 177 343
289 395 l54 24 -145 0 c-96 0 -158 -4 -182 -13z"/>
</g>
</svg>
