<svg xmlns="http://www.w3.org/2000/svg" xmlns:xlink="http://www.w3.org/1999/xlink" xmlns:inkscape="http://www.inkscape.org/namespaces/inkscape" version="1.1" width="841.89" height="595.276" viewBox="0 0 841.89 595.276">
<defs>
<clipPath id="clip_0">
<path transform="matrix(1,0,0,-1,0,595.276)" d="M130.893 263.932H747.218V383.68403H130.893Z"/>
</clipPath>
</defs>
<g inkscape:groupmode="layer" inkscape:label="Warstwa 1">
<g clip-path="url(#clip_0)">
<path transform="matrix(1,0,0,-1,633.0827,289.2634)" d="M0 0C0-2.975 1.011-5.497 3.024-7.567 5.035-9.637 7.491-10.667 10.368-10.667 13.247-10.667 15.577-9.637 17.648-7.567 19.717-5.497 20.747-2.975 20.747 0V20.612C20.747 23.587 19.736 26.109 17.725 28.179 15.712 30.249 13.258 31.279 10.379 31.279 7.5 31.279 5.045 30.249 3.033 28.179 1.011 26.109 .01 23.587 .01 20.612V0ZM38.047 0C38.047-7.779 35.265-14.142 29.691-19.091 24.117-24.039 17.685-26.513 10.379-26.513 3.072-26.513-3.36-24.039-8.934-19.091-14.508-14.142-17.29-7.779-17.29 0V20.612C-17.29 28.391-14.508 34.754-8.934 39.703-3.36 44.651 3.072 47.125 10.379 47.125 17.685 47.125 24.117 44.651 29.691 39.703 35.265 34.754 38.047 28.391 38.047 20.612Z" fill="#2c2d55"/>
<path transform="matrix(1,0,0,-1,590.301,306.8419)" d="M0 0C0-2.214-.817-4.111-2.444-5.69-4.081-7.278-6.142-8.068-8.644-8.068-11.148-8.068-13.208-7.297-14.844-5.757-16.481-4.217-17.29-2.301-17.29 .01V48.29H-25.212C-26.754 48.29-28.091 48.916-29.248 50.167-30.402 51.419-30.979 52.998-30.979 54.923-30.979 56.849-30.402 58.476-29.248 59.824-28.091 61.171-26.802 61.942-25.357 62.134L-17.435 63.289H-17.29V69.345C-17.29 76.739-14.796 82.794-9.8 87.502-4.803 92.209 1.397 94.558 8.791 94.558 10.994 94.558 12.804 93.865 14.191 92.469 15.588 91.073 16.28 89.273 16.28 87.068 16.28 84.864 15.635 82.91 14.336 81.523 13.036 80.127 11.284 79.434 9.079 79.434 6.393 79.434 4.208 78.52 2.523 76.7 .837 74.871 0 72.426 0 69.354V63.588H9.657C11.583 63.588 13.208 62.866 14.557 61.422 15.905 59.978 16.579 58.11 16.579 55.799 16.579 53.681 15.905 51.91 14.557 50.466 13.208 49.022 11.583 48.3 9.657 48.3H0V.019Z" fill="#2c2d55"/>
<path transform="matrix(1,0,0,-1,494.468,249.78229)" d="M0 0C0 2.022 .721 3.649 2.166 4.9 3.611 6.152 5.333 6.778 7.355 6.778 9.377 6.778 11.1 5.94 12.833 4.255 14.566 2.571 15.905 1.733 16.867 1.733 17.638 1.733 19.746 2.715 23.212 4.689 26.667 6.662 30.027 7.644 33.3 7.644 39.26 7.644 44.371 5.247 48.646 .443 52.922-4.361 55.059-10.561 55.059-18.147V-57.06C55.059-59.275 54.24-61.171 52.613-62.75 50.976-64.339 48.915-65.128 46.413-65.128 43.909-65.128 41.849-64.358 40.213-62.817 38.576-61.277 37.767-59.361 37.767-57.051V-18.426C37.767-15.355 36.785-12.881 34.811-11.004 32.838-9.127 30.413-8.193 27.534-8.193 24.655-8.193 22.105-9.107 20.188-10.927 18.264-12.756 17.31-15.249 17.31-18.417V-57.041C17.31-59.255 16.492-61.152 14.864-62.731 13.229-64.319 11.168-65.109 8.664-65.109 6.162-65.109 4.102-64.339 2.465-62.798 .827-61.258 .019-59.342 .019-57.031V.039Z" fill="#2c2d55"/>
<path transform="matrix(1,0,0,-1,475.4419,306.842)" d="M0 0C0-2.214-.819-4.111-2.446-5.69-4.082-7.278-6.142-8.068-8.646-8.068-11.148-8.068-13.208-7.297-14.846-5.757-16.481-4.217-17.291-2.301-17.291 .01V55.78C-17.291 58.09-16.473 60.006-14.846 61.547-13.218 63.087-11.148 63.857-8.646 63.857-6.142 63.857-4.082 63.068-2.446 61.479-.808 59.891 0 57.994 0 55.79V.019ZM-15.712 92.517C-13.786 94.347-11.438 95.252-8.656 95.252-5.872 95.252-3.64 94.337-1.666 92.517 .307 90.698 1.289 88.339 1.289 85.461 1.289 82.582 .307 80.223-1.666 78.404-3.64 76.575-5.97 75.67-8.656 75.67-11.341 75.67-13.797 76.584-15.712 78.404-17.638 80.233-18.591 82.582-18.591 85.461-18.591 88.339-17.627 90.698-15.712 92.517" fill="#2c2d55"/>
<path transform="matrix(1,0,0,-1,417.2227,306.5545)" d="M0 0C0-2.397-.839-4.4-2.523-5.979-4.208-7.567-6.345-8.356-8.936-8.356-11.525-8.356-13.672-7.567-15.347-5.979-17.03-4.39-17.87-2.397-17.87 0V81.851C-17.87 84.248-17.03 86.25-15.347 87.829-13.662 89.418-11.525 90.207-8.936 90.207-6.345 90.207-4.197 89.418-2.523 87.829-.839 86.241 0 84.248 0 81.851Z" fill="#b92324"/>
<path transform="matrix(1,0,0,-1,689.2859,331.3438)" d="M0 0C-2.021 0-3.725 .741-5.112 2.233-6.509 3.726-7.201 5.574-7.201 7.779-7.201 9.983-6.509 11.957-5.112 13.401-3.717 14.845-2.013 15.567 0 15.567H50.727C52.843 15.567 54.568 14.845 55.915 13.401 57.262 11.957 57.936 10.089 57.936 7.779 57.936 5.468 57.262 3.716 55.915 2.233 54.568 .741 52.843 0 50.727 0Z" fill="#b92324"/>
<path transform="matrix(1,0,0,-1,173.7058,306.5531)" d="M0 0C0-2.397-.837-4.4-2.522-5.979-4.207-7.567-6.344-8.356-8.934-8.356-11.524-8.356-13.671-7.567-15.346-5.979-17.03-4.39-17.868-2.397-17.868 0V73.783H-35.313C-37.431 73.783-39.202 74.553-40.646 76.093-42.09 77.634-42.812 79.55-42.812 81.86-42.812 84.171-42.09 86.087-40.646 87.627-39.202 89.167-37.431 89.937-35.313 89.937H17.435C19.745 89.937 21.565 89.167 22.913 87.627 24.261 86.087 24.934 84.171 24.934 81.86 24.934 79.55 24.261 77.634 22.913 76.093 21.565 74.553 19.745 73.783 17.435 73.783H0Z" fill="#2c2d55"/>
<path transform="matrix(1,0,0,-1,239.6168,312.5418)" d="M0 0C-2.118 1.781-3.552 3.967-4.323 6.556L-28.246 85.673C-28.535 86.828-28.679 87.694-28.679 88.262-28.679 90.659-27.765 92.585-25.945 94.029-24.116 95.473-21.863 96.195-19.168 96.195-17.242 96.195-15.538 95.617-14.056 94.462-12.564 93.307-11.582 91.824-11.1 89.995L4.178 33.647 7.49 18.224 10.802 33.647 26.08 89.995C26.561 91.824 27.543 93.307 29.036 94.462 30.528 95.617 32.232 96.195 34.148 96.195 36.834 96.195 39.096 95.473 40.925 94.029 42.754 92.585 43.659 90.669 43.659 88.262 43.659 87.685 43.515 86.818 43.226 85.673L19.303 6.556C18.532 3.967 17.088 1.781 14.98 0 12.872-1.781 10.368-2.667 7.49-2.667 4.611-2.667 2.108-1.781 0 0" fill="#2c2d55"/>
<path transform="matrix(1,0,0,-1,339.7164,237.23792)" d="M0 0C-2.589 2.975-6.104 4.467-10.522 4.467H-21.189V-26.513H-10.522C-5.912-26.513-2.359-25.05 .145-22.114 2.637-19.187 3.889-15.509 3.889-11.091 3.889-6.672 2.589-2.975 0 .01ZM-21.18-69.316C-21.18-71.713-22.018-73.716-23.703-75.294-25.386-76.883-27.525-77.672-30.114-77.672-32.703-77.672-34.84-76.883-36.526-75.294-38.211-73.706-39.048-71.713-39.048-69.316V12.535C-39.048 14.932-38.278 16.886-36.737 18.369-35.197 19.861-33.282 20.602-30.97 20.602H-10.503C-1.088 20.602 6.643 17.724 12.698 11.957 18.753 6.19 21.777-1.492 21.777-11.1 21.777-20.708 18.821-28.371 12.91-34.09 6.998-39.809-.808-42.668-10.503-42.668H-21.17V-69.326Z" fill="#2c2d55"/>
</g>
</g>
</svg>
