<svg width="15" height="15" viewBox="0 0 15 15" fill="none" xmlns="http://www.w3.org/2000/svg">
<g clip-path="url(#clip0_803_505)">
<path d="M7.21696 14.434C6.2668 14.4497 5.32354 14.2704 4.44535 13.9073C3.56716 13.5442 2.77269 13.005 2.11097 12.323C1.42894 11.6613 0.889755 10.8669 0.526681 9.98867C0.163607 9.11048 -0.0156577 8.16716 -3.67837e-05 7.217C-0.0156577 6.26685 0.163607 5.32359 0.526681 4.4454C0.889755 3.56721 1.42894 2.77277 2.11097 2.11105C2.77269 1.42902 3.56716 0.889832 4.44535 0.526758C5.32354 0.163684 6.2668 -0.0155968 7.21696 2.41798e-05C8.16711 -0.0155968 9.11039 0.163684 9.98858 0.526758C10.8668 0.889832 11.6612 1.42902 12.323 2.11105C13.005 2.77277 13.5442 3.56721 13.9073 4.4454C14.2703 5.32359 14.4496 6.26685 14.434 7.217C14.4496 8.16716 14.2703 9.11048 13.9073 9.98867C13.5442 10.8669 13.005 11.6613 12.323 12.323C11.6612 13.005 10.8668 13.5442 9.98858 13.9073C9.11039 14.2704 8.16711 14.4497 7.21696 14.434ZM7.21696 11.547C7.31142 11.5474 7.40496 11.5284 7.49182 11.4913C7.57867 11.4541 7.65699 11.3996 7.72196 11.331C7.79071 11.2661 7.84544 11.1878 7.88276 11.101C7.92008 11.0141 7.9392 10.9205 7.93896 10.826C7.9392 10.7315 7.92008 10.6379 7.88276 10.551C7.84544 10.4642 7.79071 10.3859 7.72196 10.321C7.65699 10.2524 7.57867 10.1979 7.49182 10.1608C7.40496 10.1236 7.31142 10.1046 7.21696 10.105C7.1225 10.1046 7.02897 10.1236 6.94212 10.1608C6.85527 10.1979 6.77694 10.2524 6.71197 10.321C6.64322 10.3859 6.58849 10.4642 6.55117 10.551C6.51385 10.6379 6.49472 10.7315 6.49496 10.826C6.49472 10.9205 6.51385 11.0141 6.55117 11.101C6.58849 11.1878 6.64322 11.2661 6.71197 11.331C6.77698 11.3995 6.85531 11.454 6.94215 11.4912C7.02899 11.5283 7.12251 11.5473 7.21696 11.547ZM6.49496 8.66H7.93797V2.88705H6.49496V8.66Z" fill="#9CFFEC"/>
</g>
<defs>
<clipPath id="clip0_803_505">
<rect width="14.433" height="14.433" fill="white"/>
</clipPath>
</defs>
</svg>
