<svg width="504" height="596" viewBox="0 0 504 596" fill="none" xmlns="http://www.w3.org/2000/svg">
<g clip-path="url(#clip0_872_23)">
<g opacity="0.28">
<mask id="mask0_872_23" style="mask-type:luminance" maskUnits="userSpaceOnUse" x="0" y="0" width="504" height="596">
<path d="M503.888 0H0V595.287H503.888V0Z" fill="white"/>
</mask>
<g mask="url(#mask0_872_23)">
<path opacity="0.7" d="M415.168 9.46704C436.187 9.46704 456.345 17.8167 471.208 32.6794C486.071 47.542 494.421 67.7 494.421 88.719C494.421 163.941 415.168 272.743 415.168 272.743H413.824C413.824 272.743 334.574 163.943 334.574 88.719C334.574 78.3117 336.624 68.0061 340.606 58.3909C344.589 48.7757 350.426 40.0391 357.785 32.6798C365.144 25.3206 373.881 19.4829 383.496 15.5C393.111 11.5172 403.417 9.46717 413.824 9.46704H415.168Z" stroke="#053F36" stroke-width="14" stroke-linecap="round" stroke-linejoin="round"/>
<path opacity="0.7" d="M450.474 88.7201C450.474 95.8354 448.364 102.791 444.411 108.707C440.458 114.623 434.839 119.234 428.265 121.957C421.692 124.68 414.458 125.393 407.479 124.005C400.501 122.617 394.09 119.191 389.059 114.16C384.027 109.129 380.6 102.719 379.212 95.7405C377.823 88.762 378.535 81.5285 381.257 74.9545C383.98 68.3805 388.59 62.7614 394.506 58.8076C400.421 54.8539 407.377 52.7431 414.492 52.7421C419.217 52.7417 423.896 53.672 428.261 55.4798C432.627 57.2877 436.593 59.9378 439.935 63.2787C443.276 66.6195 445.926 70.5859 447.735 74.9511C449.543 79.3164 450.474 83.9951 450.474 88.7201Z" stroke="#053F36" stroke-width="14" stroke-linecap="round" stroke-linejoin="round"/>
<path opacity="0.7" d="M90.061 322.543C111.079 322.543 131.237 330.893 146.1 345.755C160.962 360.617 169.312 380.775 169.313 401.793C169.313 477.017 90.061 585.819 90.061 585.819H88.717C88.717 585.819 9.46698 477.017 9.46698 401.793C9.46725 380.775 17.8169 360.617 32.6791 345.755C47.5413 330.893 67.6987 322.543 88.717 322.543H90.061Z" stroke="#053F36" stroke-width="14" stroke-linecap="round" stroke-linejoin="round"/>
<path opacity="0.7" d="M125.367 401.796C125.367 408.911 123.257 415.867 119.303 421.783C115.35 427.7 109.731 432.311 103.157 435.034C96.5834 437.756 89.3497 438.469 82.371 437.081C75.3922 435.692 68.9818 432.266 63.9504 427.235C58.919 422.203 55.4925 415.793 54.1043 408.814C52.7161 401.835 53.4285 394.602 56.1514 388.028C58.8743 381.454 63.4854 375.835 69.4016 371.882C75.3178 367.928 82.2735 365.818 89.389 365.818C98.9309 365.818 108.082 369.609 114.829 376.356C121.576 383.103 125.367 392.254 125.367 401.796Z" stroke="#053F36" stroke-width="14" stroke-linecap="round" stroke-linejoin="round"/>
<path opacity="0.7" d="M308.049 149.783H276.365C256.805 149.855 238.07 157.676 224.264 171.532C210.459 185.389 202.707 204.152 202.707 223.713C202.707 243.273 210.459 262.036 224.264 275.893C238.07 289.749 256.805 297.57 276.365 297.642H379.936C399.496 297.714 418.231 305.535 432.037 319.391C445.842 333.248 453.594 352.011 453.594 371.572C453.594 391.132 445.842 409.895 432.037 423.752C418.231 437.608 399.496 445.429 379.936 445.501H206.522" stroke="#053F36" stroke-width="14" stroke-linecap="round" stroke-linejoin="round"/>
</g>
</g>
</g>
<defs>
<clipPath id="clip0_872_23">
<rect width="503.888" height="595.287" fill="white"/>
</clipPath>
</defs>
</svg>
