<?xml version="1.0" standalone="no"?>
<!DOCTYPE svg PUBLIC "-//W3C//DTD SVG 20010904//EN"
 "http://www.w3.org/TR/2001/REC-SVG-20010904/DTD/svg10.dtd">
<svg version="1.0" xmlns="http://www.w3.org/2000/svg"
 width="800.000000pt" height="800.000000pt" viewBox="0 0 800.000000 800.000000"
 preserveAspectRatio="xMidYMid meet">
<metadata>
Created by potrace 1.14, written by Peter Selinger 2001-2017
</metadata>
<g transform="translate(0.000000,800.000000) scale(0.100000,-0.100000)"
fill="#000000" stroke="none">
<path d="M0 4000 l0 -4000 4000 0 4000 0 0 4000 0 4000 -4000 0 -4000 0 0
-4000z m3553 3368 c58 -17 142 -98 161 -155 26 -77 17 -151 -26 -209 -13 -16
-480 -479 -1038 -1028 -558 -550 -1102 -1085 -1207 -1190 l-193 -191 -86 85
c-47 47 -99 104 -115 127 -56 80 -56 194 -1 266 57 74 2278 2263 2312 2278 19
9 42 19 50 22 27 10 102 7 143 -5z m1431 -13 c92 -44 140 -119 141 -220 0 -57
-5 -78 -25 -112 -14 -22 -835 -838 -1825 -1813 -990 -975 -1851 -1822 -1912
-1883 l-113 -112 -100 100 c-116 116 -143 162 -143 245 1 109 -185 -83 2317
2390 1133 1119 1409 1387 1450 1407 61 29 148 28 210 -2z m1381 9 c134 -46
194 -216 124 -348 -17 -33 -734 -744 -2554 -2535 -1756 -1727 -2540 -2505
-2562 -2542 -28 -45 -33 -63 -33 -116 0 -35 7 -80 15 -101 13 -30 -15 -6 -154
133 -191 190 -217 229 -209 319 3 28 13 68 23 89 12 26 856 866 2564 2554
2072 2048 2555 2520 2596 2539 59 28 122 31 190 8z m-4205 -20 c47 -20 108
-80 131 -129 23 -49 24 -133 4 -183 -19 -45 -2 -28 -577 -593 l-467 -460 -104
96 c-128 118 -152 156 -152 245 0 44 6 77 19 103 23 46 876 886 926 912 71 37
145 40 220 9z m3360 -4889 c1042 -1027 1446 -1432 1461 -1463 46 -94 20 -212
-63 -288 -82 -76 -195 -91 -286 -38 -33 19 -524 499 -1486 1454 l-1436 1424
32 32 c233 224 321 305 329 302 5 -2 657 -642 1449 -1423z m-1059 -333 c814
-806 1091 -1085 1112 -1123 21 -40 27 -64 27 -113 0 -77 -23 -129 -82 -182
-82 -76 -195 -91 -287 -38 -36 20 -374 352 -1135 1112 l-1083 1083 176 170
c97 93 179 168 182 167 3 -2 494 -486 1090 -1076z m-1054 -362 c635 -626 754
-747 772 -789 89 -208 -131 -424 -334 -327 -40 19 -207 181 -800 770 l-750
746 175 169 c96 94 178 170 181 171 3 0 344 -333 756 -740z m-1050 -372 c430
-431 443 -446 443 -527 0 -50 -31 -120 -71 -160 -51 -51 -101 -74 -171 -79
-104 -8 -125 8 -487 359 -185 180 -334 333 -349 359 -22 37 -27 57 -27 115 0
48 6 81 19 105 16 31 213 240 226 240 3 0 191 -186 417 -412z"/>
</g>
</svg>
